<?xml version="1.0" standalone="no"?>
<!DOCTYPE svg PUBLIC "-//W3C//DTD SVG 1.1//EN" "http://www.w3.org/Graphics/SVG/1.1/DTD/svg11.dtd" >
<svg>
<metadata>
Created by FontForge 20090622 at Tue Oct 17 10:36:34 2017
 By deploy user
(c) 1999-2012 Typodermic Fonts Inc. See attached license agreement. If agreement is missing visit typodermicfonts.com for more info.
</metadata>
<defs>
<font id="Sexsmith-Regular" horiz-adv-x="390" >
  <font-face 
    font-family="Sexsmith"
    font-weight="400"
    font-stretch="normal"
    units-per-em="1000"
    panose-1="4 1 4 0 0 0 0 0 0 0"
    ascent="723"
    descent="-277"
    x-height="498"
    cap-height="764"
    bbox="-121 -277 794 922"
    underline-thickness="20"
    underline-position="-123"
    unicode-range="U+0020-U+FB04"
  />
<missing-glyph horiz-adv-x="452" 
d="M129 0q-97 0 -97 84v488q0 85 97 85h193q98 0 98 -85v-488q0 -84 -98 -84h-193zM368 572q0 39 -46 39h-193q-46 0 -46 -39v-488q0 -39 46 -39h193q46 0 46 39v488z" />
    <glyph glyph-name=".notdef" horiz-adv-x="452" 
d="M129 0q-97 0 -97 84v488q0 85 97 85h193q98 0 98 -85v-488q0 -84 -98 -84h-193zM368 572q0 39 -46 39h-193q-46 0 -46 -39v-488q0 -39 46 -39h193q46 0 46 39v488z" />
    <glyph glyph-name="space" unicode=" " horiz-adv-x="205" 
 />
    <glyph glyph-name="exclam" unicode="!" horiz-adv-x="185" 
d="M96 767q27 0 41.5 -21.5t14.5 -50.5q0 -76 -7 -132t-15 -107.5t-15 -106t-7 -126.5l-25 -2v2q0 72 -7.5 126.5t-16 106t-16 107t-7.5 130.5q0 29 16 51.5t44 22.5zM96 149q13 0 23 -6.5t17 -17t10.5 -24t3.5 -26.5q0 -29 -15 -52t-39 -23q-23 0 -37.5 23t-14.5 52
q0 13 3.5 26t10.5 23.5t16.5 17.5t21.5 7z" />
    <glyph glyph-name="quotedbl" unicode="&#x22;" horiz-adv-x="210" 
d="M155 812q36 0 36 -55q0 -7 -1 -15t-3 -20q-10 -61 -13 -104.5t-4 -70.5h-31q0 27 -4 70.5t-12 104.5q-3 18 -3 33q0 57 35 57zM58 812q36 0 36 -55q0 -7 -1 -15t-4 -20q-8 -61 -11.5 -104.5t-4.5 -70.5h-32q0 27 -3.5 70.5t-11.5 104.5q-4 16 -4 33q0 57 36 57z" />
    <glyph glyph-name="numbersign" unicode="#" horiz-adv-x="507" 
d="M182 277h117l34 214h-118zM349 278h96v-87h-108l-32 -191h-48l29 191h-116l-30 -191h-51l31 191h-93v87h106l31 211h-99v87h114l26 188h52l-28 -188h115l30 188h50l-28 -188h87v-87h-102z" />
    <glyph glyph-name="dollar" unicode="$" horiz-adv-x="334" 
d="M181 0h-40v122q-55 4 -93.5 35t-45.5 79l33 10q10 -32 40.5 -55t68.5 -23t57.5 21.5t19.5 50.5q0 30 -14.5 52.5t-36 41t-46.5 35.5t-46.5 37.5t-36 46t-14.5 61.5q0 49 31 80t83 37v133h40v-133q24 -4 39.5 -13.5t26.5 -22.5v26h38v-131h-38q0 96 -75 96
q-25 0 -42.5 -13.5t-17.5 -43.5t15.5 -48t38 -32t49.5 -27.5t49.5 -33.5t38 -50t15.5 -77q0 -30 -11 -54t-29.5 -42t-43.5 -28.5t-53 -13.5v-123z" />
    <glyph glyph-name="percent" unicode="%" horiz-adv-x="538" 
d="M479 764l-352 -764h-51l350 764h53zM152 775q25 0 47 -6.5t38.5 -22.5t25.5 -42.5t9 -66.5t-9 -67.5t-25.5 -44t-38.5 -24t-47 -7.5q-26 0 -47.5 7t-38 23.5t-25.5 44t-9 68.5q0 40 9 66.5t25.5 42.5t38 22.5t47.5 6.5zM152 739q-20 0 -33 -9t-21 -23.5t-11.5 -33.5
t-3.5 -40q0 -43 15 -73t54 -30t54 30t15 73q0 21 -3.5 40t-11.5 33.5t-21 23.5t-33 9zM397 278q27 0 49.5 -6.5t39 -22.5t25.5 -43.5t9 -69.5t-9 -70t-25.5 -45.5t-39 -24.5t-49.5 -7t-49.5 7t-39 24t-25.5 45.5t-9 70.5t9 69.5t25.5 43.5t39 22.5t49.5 6.5zM397 242
q-20 0 -33.5 -9t-22 -24t-12.5 -35t-4 -42q0 -44 16 -75t56 -31t56 31t16 75q0 22 -4 42t-12.5 35t-22 24t-33.5 9z" />
    <glyph glyph-name="ampersand" unicode="&#x26;" horiz-adv-x="371" 
d="M151 775q27 0 46 -11t31 -28.5t18 -40t6 -45.5q0 -32 -5.5 -65t-16.5 -64.5t-28 -60t-39 -50.5q58 -143 109 -234.5t105 -125.5v-47q-50 17 -106 88q-14 -46 -44 -70.5t-68 -24.5q-36 0 -64 16.5t-46.5 44t-28 62.5t-9.5 72q0 39 8 78t21.5 73.5t30 63t34.5 46.5
q-19 48 -33 101t-14 101q0 54 24 87.5t69 33.5zM144 734q-22 0 -33 -23.5t-11 -57.5q0 -23 2 -43t6 -40t10 -41.5t14 -46.5q27 27 46 71.5t19 96.5q0 39 -14 61.5t-39 22.5zM255 111q-32 54 -63 117t-60 144q-7 -11 -14 -29.5t-12.5 -41.5t-9 -48t-3.5 -48q0 -34 5.5 -63.5
t15.5 -51.5t24 -35t31 -13q31 0 53 18.5t33 50.5z" />
    <glyph glyph-name="quotesingle" unicode="'" horiz-adv-x="121" 
d="M58 812q36 0 36 -55q0 -7 -1 -15t-4 -20q-8 -61 -11.5 -104.5t-4.5 -70.5h-32q0 27 -3.5 70.5t-11.5 104.5q-4 16 -4 33q0 57 36 57z" />
    <glyph glyph-name="parenleft" unicode="(" horiz-adv-x="286" 
d="M254 769q-34 -16 -57 -50t-37.5 -94t-21 -150.5t-6.5 -218.5q0 -119 10 -201t27 -136t39 -84.5t46 -46.5v-60q-90 28 -143.5 158.5t-53.5 372.5q0 244 46 386.5t151 185.5v-62z" />
    <glyph glyph-name="parenright" unicode=")" horiz-adv-x="286" 
d="M57 -210q33 16 56.5 50t38 94t21 150t6.5 219q0 119 -10 201t-27 136t-39 84.5t-46 47.5v59q89 -26 143 -158t54 -373q0 -244 -46 -386.5t-151 -185.5v62z" />
    <glyph glyph-name="asterisk" unicode="*" horiz-adv-x="257" 
d="M240 699q0 -12 -9.5 -21t-24 -16t-32 -12.5l-33.5 -10.5q15 -7 32.5 -13t31.5 -13t23.5 -15.5t9.5 -20.5q0 -32 -30 -32q-7 0 -14.5 6.5t-16 17t-18 23.5t-20.5 26q0 -2 3.5 -12.5t7 -24l7 -26.5t3.5 -19q0 -33 -31 -33q-32 0 -32 33q0 7 4 20l8.5 26.5l8.5 24.5t4 15
l-38 -53t-34 -24q-30 0 -30 32q0 12 9.5 20.5t23.5 15.5t31 13t32 13l-32.5 10.5t-32 12.5t-24 16t-9.5 21q0 32 31 32q7 0 16 -7t18.5 -18t19.5 -25l20 -29q-1 4 -4.5 16l-7.5 26t-7 27.5t-3 21.5q0 32 30 32q31 0 31 -32q0 -8 -3.5 -21.5t-8 -27l-8 -24.5t-3.5 -15
q18 29 36 52.5t34 23.5q31 0 31 -32z" />
    <glyph glyph-name="plus" unicode="+" horiz-adv-x="234" 
d="M218 368h-85v-102h-39v102h-86v48h86v105h39v-105h85v-48z" />
    <glyph glyph-name="comma" unicode="," horiz-adv-x="139" 
d="M72 148q23 0 38 -21t15 -53q0 -20 -6.5 -47.5t-17 -52t-25.5 -41.5t-31 -17l-6 21q44 19 46 66q-15 -5 -21 -5q-19 0 -32 21.5t-13 55.5q0 32 15 52.5t38 20.5z" />
    <glyph glyph-name="hyphen" unicode="-" horiz-adv-x="275" 
d="M254 237h-234v59h234v-59z" />
    <glyph glyph-name="period" unicode="." horiz-adv-x="150" 
d="M74 149q13 0 23 -6.5t16.5 -17t10 -24t3.5 -26.5q0 -29 -15 -52t-38 -23q-24 0 -38.5 23t-14.5 52q0 13 4 26t10.5 23.5t16.5 17.5t22 7z" />
    <glyph glyph-name="slash" unicode="/" horiz-adv-x="289" 
d="M280 764l-212 -764h-51l210 764h53z" />
    <glyph glyph-name="zero" unicode="0" 
d="M195 775q45 0 78.5 -20.5t56 -65t33.5 -115t11 -171.5q0 -414 -188 -414q-39 0 -69.5 16t-52 57t-32.5 111.5t-11 178.5q0 423 174 423zM195 728q-88 0 -88 -362q0 -74 2 -134.5t11 -104t26.5 -67.5t48.5 -24q92 0 92 344q0 70 -2.5 133t-11.5 111t-27.5 76t-50.5 28z
" />
    <glyph glyph-name="one" unicode="1" horiz-adv-x="207" 
d="M193 0h-182v47h23q21 0 25.5 17t4.5 39v529h-62v46q24 0 42 8t30 20.5t18.5 27.5t7.5 30h41v-661q0 -22 7.5 -39t23.5 -17h21v-47z" />
    <glyph glyph-name="two" unicode="2" horiz-adv-x="315" 
d="M154 775q61 0 96.5 -41.5t35.5 -122.5q0 -65 -14.5 -112.5t-35.5 -85.5t-46.5 -70t-46.5 -66t-35.5 -73.5t-14.5 -91.5v-19h150q23 0 23 42v14h30v-148h-273v82q0 69 14 117t35 85t45.5 68t45.5 65.5t35 78t14 105.5q0 61 -19 93.5t-48 32.5q-51 0 -52 -30q15 -8 26 -26
t11 -45q0 -29 -15 -51t-38 -22q-24 0 -39 23.5t-15 57.5q0 64 34 102t97 38z" />
    <glyph glyph-name="three" unicode="3" horiz-adv-x="308" 
d="M289 218q0 -46 -10.5 -87.5t-30.5 -73t-48.5 -50t-63.5 -18.5q-26 0 -47.5 10t-37 26t-24 35t-8.5 36h26q10 -33 34.5 -46.5t56.5 -13.5q12 0 23.5 8t21 28t15.5 53.5t6 85.5q0 36 -3 68.5t-10.5 56.5t-19 38.5t-27.5 14.5h-37v51h38q26 0 39.5 33.5t13.5 105.5
q0 47 -5 76t-13 45.5t-17 22t-16 5.5q-49 0 -49 -30q37 -16 37 -71q0 -34 -17 -58.5t-37 -24.5q-14 0 -23.5 8.5t-16.5 20.5t-10 26t-3 25q0 67 32.5 109t86.5 42q55 0 91.5 -44.5t36.5 -138.5q0 -42 -4.5 -70.5t-13.5 -48.5t-21.5 -34t-27.5 -27q33 -17 58 -64t25 -130z
" />
    <glyph glyph-name="four" unicode="4" horiz-adv-x="300" 
d="M292 202h-50v-99q0 -22 7 -39t24 -17h21v-47h-160v47h23q21 0 25.5 17t4.5 39v99h-180v49l93 513h70l-94 -518h111v330h55v-330h50v-44z" />
    <glyph glyph-name="five" unicode="5" horiz-adv-x="302" 
d="M291 259q0 -67 -12 -117.5t-33 -84.5t-49 -51t-59 -17q-93 0 -126 126h23q3 -17 13 -31t24.5 -25t31.5 -17t34 -6q11 0 23 10t21.5 33.5t16 63t6.5 99.5q0 96 -23 142.5t-59 46.5q-13 0 -30.5 -7t-33.5 -23l-32 26l11 338h218v-154h-30q0 62 -21 62h-130l-11 -232
q35 26 79 26q31 0 58 -11t47 -35.5t31.5 -64.5t11.5 -97z" />
    <glyph glyph-name="six" unicode="6" horiz-adv-x="316" 
d="M181 425q54 0 87 -52t33 -155q0 -46 -10 -87.5t-28 -73t-43 -50t-56 -18.5q-34 0 -61 20.5t-46 58t-29 89t-10 113.5q0 80 17 162t47 151.5t70.5 119t87.5 64.5l5 -28q-67 -23 -105.5 -122t-43.5 -256q15 35 37 49.5t48 14.5zM160 378q-39 0 -64 -48v-110
q0 -87 17 -135.5t51 -48.5q11 0 20.5 7.5t16 28t10.5 56t4 91.5q0 159 -55 159z" />
    <glyph glyph-name="seven" unicode="7" horiz-adv-x="273" 
d="M276 764q-40 -115 -67.5 -212t-44 -180.5t-23.5 -157t-7 -140.5q0 -36 -10.5 -58t-31.5 -22q-24 0 -36 22t-12 58q0 69 13.5 137.5t37.5 141t57 152l72 170.5h-158q-24 0 -24 -59h-34v148h268z" />
    <glyph glyph-name="eight" unicode="8" horiz-adv-x="321" 
d="M160 775q64 0 92.5 -49t28.5 -131q0 -36 -2.5 -60t-8 -41.5t-14.5 -30.5t-22 -27q17 -12 30.5 -35.5t23.5 -52.5t15 -61t5 -62q0 -115 -40.5 -175.5t-107.5 -60.5q-66 0 -107 60.5t-41 175.5q0 30 5 62t14.5 61t23.5 52.5t31 35.5q-26 26 -36.5 64t-10.5 95
q0 82 28.5 131t92.5 49zM160 734q-10 0 -18.5 -5.5t-14.5 -20.5t-9 -42.5t-3 -72.5t3 -72t9 -41t14.5 -18.5t19.5 -4.5t19.5 4.5t14 18.5t8.5 41t3 72t-3.5 72.5t-9.5 42.5t-14.5 20.5t-18.5 5.5zM159 415q-12 0 -23 -9.5t-19.5 -32t-13.5 -58.5t-5 -88q0 -96 11 -143.5
t51 -47.5q20 0 32 11t18.5 34t8.5 59t2 87q0 54 -5.5 90t-14.5 58t-20 31t-22 9z" />
    <glyph glyph-name="nine" unicode="9" horiz-adv-x="321" 
d="M139 316q-54 0 -87 58t-33 161q0 52 10 96t28 76t43 50t55 18q34 0 61.5 -20.5t46.5 -58t29 -89t10 -113.5q0 -93 -13.5 -176.5t-39 -149.5t-62 -111t-81.5 -60l-4 28q33 21 55.5 50t36 70.5t20.5 98.5t10 136q-15 -34 -37.5 -49t-47.5 -15zM160 376q38 0 64 48v121
q0 42 -4.5 78t-13 62t-21.5 40.5t-30 14.5q-11 0 -20 -9.5t-15.5 -32t-10.5 -59.5t-4 -93q0 -81 13.5 -125.5t41.5 -44.5z" />
    <glyph glyph-name="colon" unicode=":" horiz-adv-x="162" 
d="M86 435q24 0 39 -23t15 -51t-15 -51t-39 -23q-23 0 -38.5 23t-15.5 51t15.5 51t38.5 23zM86 149q12 0 22 -7t17 -17.5t11 -23.5t4 -26q0 -29 -15 -52t-39 -23q-23 0 -38.5 23t-15.5 52q0 13 4 26t11 23.5t17 17.5t22 7z" />
    <glyph glyph-name="semicolon" unicode=";" horiz-adv-x="163" 
d="M86 435q24 0 39 -23t15 -51t-15 -51t-39 -23q-23 0 -37.5 22.5t-14.5 51.5t14.5 51.5t37.5 22.5zM86 148q24 0 39 -21t15 -53q0 -20 -6.5 -47.5t-17.5 -52t-26 -41.5t-31 -17l-5 21q45 20 46 66q-15 -5 -21 -5q-21 0 -33 23t-12 54q0 32 15 52.5t37 20.5z" />
    <glyph glyph-name="less" unicode="&#x3c;" horiz-adv-x="374" 
d="M339 316v-55l-310 110v54l310 106v-55l-245 -79z" />
    <glyph glyph-name="equal" unicode="=" horiz-adv-x="173" 
d="M281 447h-263v61h263v-61zM281 267h-263v64h263v-64z" />
    <glyph glyph-name="greater" unicode="&#x3e;" horiz-adv-x="374" 
d="M277 397l-245 79v55l310 -106v-54l-310 -110v55z" />
    <glyph glyph-name="question" unicode="?" horiz-adv-x="296" 
d="M283 599q0 -43 -12 -78t-30 -63.5t-39.5 -52.5l-39.5 -46t-30 -43t-12 -44q0 -21 7 -33.5t26 -13.5v-29q-33 0 -51.5 22t-18.5 57q0 22 2 43.5t11 40.5q12 25 29.5 48.5t33 51t27 62t11.5 81.5q0 38 -4.5 62.5t-12 38.5t-18 19.5t-21.5 5.5q-53 0 -54 -30q38 -17 38 -71
q0 -28 -15 -50.5t-38 -22.5q-25 0 -39.5 24t-14.5 61q0 31 10.5 56.5t28.5 43t42.5 27t52.5 9.5t52 -9t41.5 -30t27.5 -54.5t10 -82.5zM181 75q0 -29 -14.5 -52t-37.5 -23q-24 0 -39 23t-15 52q0 13 3.5 26.5t10.5 24t17 17t23 6.5q23 0 37.5 -23t14.5 -51z" />
    <glyph glyph-name="at" unicode="@" horiz-adv-x="520" 
d="M464 0h-170q-66 0 -116.5 27.5t-85 80t-52 128t-17.5 171.5q0 103 23.5 179t61 126.5t84 75t92.5 24.5q49 0 89.5 -17t69.5 -54t45 -94t16 -138q0 -88 -11.5 -140.5t-30 -80.5t-41 -37t-44.5 -9t-38 10t-28 38q-1 -14 -8 -23t-16 -14.5t-19.5 -8t-18.5 -2.5
q-29 0 -50.5 19t-21.5 67q0 40 10.5 73.5t27 60.5t37 47.5t40.5 34.5l65 -13v-182q0 -27 6 -45t22 -18q17 0 30 20.5t21.5 51t13 65.5t4.5 63q0 141 -41.5 204.5t-128.5 63.5q-57 0 -96.5 -31t-64.5 -81t-36 -112.5t-11 -125.5q0 -80 14 -144t41 -109t67 -69t92 -24h99
q25 0 45 62h23zM302 492q-11 -10 -23.5 -25.5t-23 -35.5t-17 -44.5t-6.5 -52.5q0 -48 33 -48q16 0 24 17t13 39v150z" />
    <glyph glyph-name="A" unicode="A" horiz-adv-x="408" 
d="M404 0h-160v47h9q30 0 30 21q0 5 -1.5 15.5t-3.5 27.5l-13 89h-164l-16 -84q-3 -16 -3 -28t-1 -20q0 -21 29 -21h9v-47h-111v47h7q21 0 30 32l115 598q1 5 1.5 9.5t0.5 9.5q0 21 -28 21h-17v47h116l135 -685q9 -32 27 -32h9v-47zM258 246l-72 369l-76 -369h148z" />
    <glyph glyph-name="B" unicode="B" horiz-adv-x="399" 
d="M11 764h174q73 0 106.5 -41t33.5 -122q0 -57 -17 -94.5t-50 -63.5q31 -6 55 -26t40.5 -49.5t25.5 -66.5t9 -76q0 -225 -163 -225h-214v47h14q6 0 10.5 2.5t7.5 13.5t5 34t3.5 64.5t2 105t0.5 155.5q0 102 -1 161t-4 89t-9.5 38t-18.5 8h-10v46zM160 718q-12 0 -18.5 -9
t-9.5 -38t-4 -83t-1 -145h40q73 0 73 139q0 136 -80 136zM126 396v-34q0 -96 0.5 -157.5t3 -96.5t7.5 -48t14 -13h49q25 0 44 15t32 40.5t20 59.5t7 71q0 50 -6.5 82t-19.5 50t-32.5 24.5t-44.5 6.5h-74z" />
    <glyph glyph-name="C" unicode="C" horiz-adv-x="348" 
d="M338 123q-2 -26 -11.5 -50.5t-25.5 -43t-37.5 -29.5t-47.5 -11q-59 0 -98.5 25t-63 75.5t-33 126.5t-9.5 178q0 78 10 145.5t33.5 117.5t62.5 78.5t97 28.5q25 0 46.5 -12t37.5 -30.5t25 -42t9 -45.5q0 -42 -14 -66t-39 -24q-23 0 -35.5 20t-12.5 51q0 52 33 72
q-23 30 -54 30q-30 0 -51 -24t-35 -67.5t-20.5 -104.5t-6.5 -135q0 -73 2.5 -137t14 -111t34 -74.5t62.5 -27.5t64.5 26t35.5 61h27z" />
    <glyph glyph-name="D" unicode="D" horiz-adv-x="386" 
d="M12 764h188q169 0 169 -340q0 -133 -11.5 -215.5t-34 -129t-54.5 -63t-72 -16.5h-185v46h9q16 0 25 6.5t9 38.5v582q0 29 -8.5 37t-24.5 8h-10v46zM154 718q-13 0 -21 -9.5t-8 -35.5v-582q0 -17 8 -31t18 -14h21q33 0 54.5 26.5t34 74.5t17.5 114.5t5 145.5
q0 56 -4 111.5t-15.5 100t-33.5 72t-58 27.5h-18z" />
    <glyph glyph-name="E" unicode="E" horiz-adv-x="327" 
d="M11 764h260v-108h-36q0 61 -24 61h-41q-14 0 -22.5 -5.5t-13 -31.5t-6 -79t-1.5 -147h60q28 0 28 53v7h34v-168h-34v4q0 57 -28 57h-60v-191q0 -56 1.5 -89.5t5.5 -51.5t11 -23.5t19 -5.5h83q24 0 24 61h34v-107h-294v46h14q29 0 29 90v397q0 62 -1.5 98.5t-5 56t-11 25
t-19.5 5.5h-6v46z" />
    <glyph glyph-name="F" unicode="F" horiz-adv-x="281" 
d="M274 656h-35q0 62 -23 62h-53q-15 0 -22.5 -10.5t-10.5 -42.5t-3 -90t-1 -154h59q27 0 27 52v8h36v-169h-36v4q0 58 -27 58h-60v-266q0 -39 8 -50t35 -11h8v-47h-167v47h12q9 0 14.5 1.5t9 8t5 18.5t1.5 33v500q0 48 -5 79t-30 31h-7v46h265v-108z" />
    <glyph glyph-name="G" unicode="G" horiz-adv-x="378" 
d="M378 -2h-3q-23 0 -38 4.5t-26 13.5t-18.5 22.5t-15.5 31.5q-7 -31 -34 -56t-75 -25q-56 0 -86.5 35t-45 90t-17 121t-2.5 128q0 115 13 194t38 127.5t62 69.5t85 21t75.5 -38.5t27.5 -102.5q0 -31 -16 -55t-38 -24t-35.5 21.5t-13.5 50.5q0 53 34 71q-5 11 -15 20.5
t-29 9.5q-36 0 -56 -26t-30.5 -68.5t-13 -98.5t-2.5 -116q0 -383 89 -383q15 0 27.5 14t21.5 38.5t13.5 57.5t4.5 71q0 54 -6 79t-25 25h-32v47h173v-47h-13q-26 0 -26 -31v-173q0 -72 38 -72h10v-47z" />
    <glyph glyph-name="H" unicode="H" horiz-adv-x="433" 
d="M400 0h-160v47h11q20 0 26.5 18.5t6.5 60.5v259h-143v-259q0 -42 7 -60.5t28 -18.5h9v-47h-160v47h10q22 0 27.5 23t5.5 55v454q0 76 -5 107.5t-28 31.5h-10v46h160v-46h-12q-21 0 -26.5 -22t-5.5 -79v-185h142v194q0 18 -1 34.5t-4.5 29t-10 20.5t-16.5 8h-11v46h160
v-46h-10q-9 0 -15.5 -10.5t-10.5 -26.5t-6 -33.5t-2 -30.5v-493q0 -24 2.5 -39.5t7 -23.5t11 -11t14.5 -3h9v-47z" />
    <glyph glyph-name="I" unicode="I" horiz-adv-x="221" 
d="M147 126q0 -42 7 -60.5t27 -18.5h9v-47h-160v47h10q23 0 28.5 23t5.5 55v454q0 76 -5 107.5t-29 31.5h-10v46h160v-46h-11q-21 0 -26.5 -22t-5.5 -79v-491z" />
    <glyph glyph-name="J" unicode="J" horiz-adv-x="290" 
d="M275 764q-5 -37 -7.5 -91t-2.5 -126v-358q0 -39 -9 -75t-25.5 -64t-41.5 -44.5t-56 -16.5q-63 0 -93 42.5t-30 108.5q0 26 14.5 48.5t39.5 22.5q24 0 38.5 -24t14.5 -51q0 -53 -38 -70q1 -30 54 -30q21 0 33.5 18t19 51.5t8.5 82t2 109.5v240q0 91 -6.5 135.5t-26.5 44.5
h-12v47h124z" />
    <glyph glyph-name="K" unicode="K" horiz-adv-x="406" 
d="M166 764v-47q-2 1 -7 1q-12 0 -19.5 -6t-11.5 -35t-5 -90.5t-1 -173.5q26 1 41 27.5t24 65.5t16.5 84t19.5 84t32.5 64.5t56.5 25.5h59v-47h-29q-17 0 -29.5 -17t-23.5 -44q-11 -26 -19 -63.5t-19 -74.5t-27.5 -68t-43.5 -44q35 -2 55.5 -29.5t33 -67.5t19.5 -86
t14 -85.5t17.5 -65.5t29.5 -26q27 0 35 54h31v-23q0 -81 -74 -81q-80 0 -104 92l-23 178q-21 100 -92 111v-236q0 -32 1.5 -50.5t5.5 -28.5t11 -12.5t18 -2.5h8v-47h-160v47h7q10 0 17 2.5t11.5 12.5t6 28.5t1.5 50.5v473q0 36 -2 56.5t-5.5 31t-8.5 13.5t-10 3h-8.5
t-8.5 -1v47h160z" />
    <glyph glyph-name="L" unicode="L" horiz-adv-x="297" 
d="M291 0h-287v47h14q21 0 25.5 23.5t4.5 65.5v414q0 58 -2 91.5t-5.5 50.5t-9.5 21.5t-14 4.5h-13v46h160v-46h-10q-11 0 -17 -6.5t-10 -27t-5 -59t-1 -102.5v-399q0 -39 5.5 -58t27.5 -19h78q23 0 23 60h36v-107z" />
    <glyph glyph-name="M" unicode="M" horiz-adv-x="475" 
d="M459 0h-160v46h7q25 0 33 22.5t8 84.5v472l-102 -625h-59l-98 611v-505q0 -24 6.5 -42.5t28.5 -18.5h8v-45h-118v45h8q23 0 30 16t7 49v486q0 40 -2.5 64t-8 37t-13.5 16.5t-19 3.5v47h137l81 -594l87 594h139v-46h-7q-10 0 -17 -3t-11.5 -14.5t-6.5 -35t-2 -63.5v-420
q0 -45 1.5 -72t5.5 -41.5t11 -18.5t18 -4h8v-46z" />
    <glyph glyph-name="N" unicode="N" horiz-adv-x="417" 
d="M403 718h-8q-17 0 -27 -15t-10 -52v-531q0 -29 1.5 -59t5.5 -61h-72l-198 649v-545q0 -29 10 -43.5t25 -14.5h9v-46h-123v46h9q19 0 26 10t7 48v529q0 28 -2 45t-6 26t-10 11.5t-14 2.5h-10v46h125l179 -604v484q0 46 -7.5 60t-22.5 14h-12v46h125v-46z" />
    <glyph glyph-name="O" unicode="O" 
d="M195 775q45 0 78.5 -20.5t56 -65t33.5 -115t11 -171.5q0 -414 -188 -414q-39 0 -69.5 16t-52 57t-32.5 111.5t-11 178.5q0 423 174 423zM195 728q-88 0 -88 -362q0 -74 2 -134.5t11 -104t26.5 -67.5t48.5 -24q92 0 92 344q0 70 -2.5 133t-11.5 111t-27.5 76t-50.5 28z
" />
    <glyph glyph-name="P" unicode="P" horiz-adv-x="355" 
d="M11 764h191q142 0 142 -176q0 -223 -142 -223h-76v-226q0 -48 7.5 -70t29.5 -22h8v-47h-160v47h8q19 0 27 11.5t8 49.5v543q0 23 -2.5 36.5t-7 20t-11 8.5t-14.5 2q-7 0 -8 -1v47zM161 718q-22 0 -28.5 -13.5t-6.5 -53.5v-236h52q80 0 80 156q0 52 -4.5 82t-14.5 44
t-25 17.5t-36 3.5h-17z" />
    <glyph glyph-name="Q" unicode="Q" horiz-adv-x="384" 
d="M384 -95q0 -35 -22 -58.5t-58 -23.5q-43 0 -70.5 30t-35.5 94l-5 42h-11q-39 0 -69.5 16t-51.5 57t-32 111.5t-11 178.5q0 423 173 423q45 0 79 -20.5t56 -65t33 -115t11 -171.5q0 -325 -115 -395l2 -23q5 -38 9 -60t10 -33t15.5 -14.5t24.5 -3.5q30 0 30 53h38v-22z
M191 728q-87 0 -87 -362q0 -54 0.5 -108t5.5 -94q6 16 20.5 25t31.5 9q28 0 52.5 -26.5t31.5 -86.5v-3q38 78 38 298q0 70 -2 133t-11.5 111t-28 76t-51.5 28zM188 36q-7 64 -16 93t-24 29q-29 0 -29 -39q8 -40 24.5 -61t44.5 -22z" />
    <glyph glyph-name="R" unicode="R" horiz-adv-x="418" 
d="M418 100v-23q0 -42 -22 -61.5t-58 -19.5q-26 0 -44 14.5t-30.5 40.5t-21 62.5t-15.5 81.5q-9 57 -19.5 94t-23 59t-27.5 32.5t-33 14.5v-289q0 -32 10 -45.5t27 -13.5h8v-47h-160v47h8q18 0 26 11t8 48v547q0 22 -2.5 35t-7 20t-10.5 8.5t-13 1.5h-9v46h169
q63 0 105 -38.5t42 -114.5q0 -84 -33.5 -134.5t-93.5 -61.5q20 -10 35 -24.5t26.5 -38.5t20.5 -58.5t17 -85.5q8 -42 12.5 -72.5t9 -50.5t11.5 -29.5t20 -9.5q30 0 30 50v4h38zM159 718q-23 0 -28.5 -11.5t-5.5 -42.5v-214h51q67 0 67 132q0 78 -17 107t-50 29h-17z" />
    <glyph glyph-name="S" unicode="S" horiz-adv-x="294" 
d="M256 758v-133h-36q0 16 -4 32.5t-12.5 29.5t-21.5 21.5t-30 8.5q-23 0 -41.5 -22.5t-18.5 -55.5q0 -52 14.5 -92.5t35.5 -74.5t46.5 -65t46.5 -65t35.5 -73.5t14.5 -91.5q0 -51 -12 -87t-32 -58.5t-47.5 -32.5t-57.5 -10q-27 0 -51 12.5t-42.5 36t-30.5 55.5t-15 71
l29 16q4 -26 14 -47.5t23.5 -38t29.5 -25.5t33 -9t31.5 8t25 20.5t16 28t5.5 31.5q0 41 -13 79.5t-34 75.5t-46 73.5l-49 74.5q-23 36 -33 76.5t-10 89.5q0 79 33.5 118.5t88.5 39.5q30 0 48.5 -15.5t30.5 -41.5v40h36z" />
    <glyph glyph-name="T" unicode="T" horiz-adv-x="358" 
d="M356 764v-130h-36q0 73 -36 73h-30q-13 0 -20.5 -4t-11 -13.5t-4.5 -26.5t-1 -43v-480q0 -53 8 -73t38 -20h3v-47h-172v47h9q22 0 31 18t9 75v480q0 52 -9.5 69t-27.5 17h-42q-24 0 -24 -72h-36v130h352z" />
    <glyph glyph-name="U" unicode="U" horiz-adv-x="419" 
d="M410 718h-14q-16 0 -21 -8.5t-5 -36.5v-467q0 -50 -7 -90t-24 -68.5t-44.5 -43.5t-68.5 -15t-73.5 10.5t-55 36.5t-35 70t-12.5 111v456q0 27 -5 36t-25 9h-11v46h167v-46h-19q-25 0 -25 -45v-456q0 -51 3.5 -86t13.5 -56t28.5 -30t48.5 -9t50 8t33 28.5t18.5 55.5
t5.5 89v456q0 28 -6.5 36.5t-23.5 8.5h-17v46h124v-46z" />
    <glyph glyph-name="V" unicode="V" horiz-adv-x="399" 
d="M395 716h-5q-15 0 -20 -7t-10 -25l-128 -684h-60l-135 684q-9 33 -27 33h-6v47h157v-48h-18q-21 0 -21 -14v-8.5t1 -9.5l96 -536l105 536q0 32 -29 32h-9v48h109v-48z" />
    <glyph glyph-name="W" unicode="W" horiz-adv-x="599" 
d="M597 717h-3q-16 0 -21 -6t-9 -25l-110 -686h-59l-96 435l-93 -435h-56l-118 686q-9 32 -22 32h-7v46h154v-47h-10q-30 0 -30 -20q0 -1 0.5 -3.5l1.5 -7.5l78 -538l105 479h44l98 -479l82 516q1 9 1.5 17t0.5 15q0 21 -29 21h-9v47h107v-47z" />
    <glyph glyph-name="X" unicode="X" horiz-adv-x="376" 
d="M369 1h-172v47h10q29 0 29 17q0 5 -1 16.5t-6 26.5l-58 211l-73 -222q-5 -22 -5 -33q0 -16 32 -16h8v-47h-127v47h6q17 0 29 31l110 301l-109 306q-8 20 -14 26t-18 6h-4v46h172v-47l-24 1q-15 0 -15 -18q0 -4 0.5 -13t5.5 -23l62 -212l66 211q5 14 5.5 23t1.5 14
q0 18 -33 18q-4 0 -5 -1v47h127v-46h-8q-13 0 -18 -6.5t-12 -25.5l-105 -295l106 -312q6 -15 15 -23t18 -8h4v-47z" />
    <glyph glyph-name="Y" unicode="Y" horiz-adv-x="404" 
d="M400 718h-13q-12 0 -17 -11l-131 -392v-233q0 -20 7 -27.5t18 -7.5h9v-47h-143v47h11q12 0 18.5 7.5t6.5 27.5v233l-124 371q-7 19 -13 25.5t-19 6.5q-3 0 -4 -1v47h172v-47l-24 1q-14 0 -14 -21q2 -5 1.5 -12t3.5 -20l79 -275l81 294q4 11 4 21q0 13 -18 13h-20v46h129
v-46z" />
    <glyph glyph-name="Z" unicode="Z" horiz-adv-x="303" 
d="M286 0h-276v50l192 667h-118q-24 0 -24 -54v-5h-35v106h261v-42l-197 -675h139q24 0 24 56v5h34v-108z" />
    <glyph glyph-name="bracketleft" unicode="[" horiz-adv-x="305" 
d="M257 812l-12 -56h-110v-964h122l-12 -58h-180v1078h192z" />
    <glyph glyph-name="backslash" unicode="\" horiz-adv-x="289" 
d="M68 764l210 -764h-51l-211 764h52z" />
    <glyph glyph-name="bracketright" unicode="]" horiz-adv-x="305" 
d="M257 812v-1078h-180l-12 58h122v964h-110l-12 56h192z" />
    <glyph glyph-name="underscore" unicode="_" horiz-adv-x="328" 
d="M-6 -38h340v-69h-340v69z" />
    <glyph glyph-name="grave" unicode="`" horiz-adv-x="166" 
d="M166 548h-39l-119 103h95z" />
    <glyph glyph-name="a" unicode="a" horiz-adv-x="353" 
d="M359 72q0 -32 -17 -55.5t-47 -23.5q-43 0 -65 51q-25 -25 -52.5 -40t-63.5 -15q-46 0 -74.5 28.5t-28.5 88.5q0 40 21.5 72.5t53 57.5t68 43t65.5 29v47q0 34 -5.5 55t-14 32t-17 15t-14.5 4q-25 0 -41 -8.5t-24 -21.5q16 -6 26.5 -21t10.5 -38q0 -28 -14.5 -46
t-39.5 -18q-22 0 -37 18t-15 50q0 33 12 57.5t32 41t46 25t54 8.5q60 0 89 -34.5t29 -112.5v-287q0 -23 16 -23q13 0 13 36v6q0 2 -0.5 6.5t-0.5 10.5h35v-38zM218 268q-22 -10 -45 -22.5t-42 -29t-31 -39t-12 -52.5q0 -31 18 -53.5t39 -22.5q13 0 25 5t21.5 13.5t16.5 18.5
t10 19v163z" />
    <glyph glyph-name="b" unicode="b" horiz-adv-x="340" 
d="M202 509q33 0 56 -12t38 -40.5t21.5 -77.5t6.5 -122q0 -78 -7.5 -129.5t-24 -82t-42 -43.5t-60.5 -13q-24 0 -49.5 14t-44.5 46q-3 -20 -19 -49h-33v707q0 38 -8.5 48t-26.5 10v47h120q-3 -40 -4.5 -86t-2.5 -93t-1 -91v-80q12 23 37 35t44 12zM182 462q-12 0 -21 -6
t-15.5 -16t-11.5 -23t-8 -26v-286q3 -11 8.5 -23t13 -22.5t17 -17t22.5 -6.5q18 0 28 10.5t15 35t6.5 65t1.5 99.5q0 66 -4 108t-11 66t-17.5 33t-23.5 9z" />
    <glyph glyph-name="c" unicode="c" horiz-adv-x="295" 
d="M301 115q-5 -27 -16 -50t-27 -40t-36 -26.5t-42 -9.5q-38 0 -68 15.5t-52 49.5t-33.5 87.5t-11.5 129.5q0 63 14.5 108t38 74t53.5 42.5t60 13.5q48 0 78 -30.5t30 -87.5q0 -40 -15 -61.5t-39 -21.5t-38.5 19.5t-14.5 48.5q0 27 9 39.5t28 21.5q-1 17 -15 23.5t-31 6.5
q-14 0 -27 -8t-23 -29.5t-16 -59.5t-6 -99q0 -123 20 -176t59 -53q36 0 60.5 20t34.5 60z" />
    <glyph glyph-name="d" unicode="d" horiz-adv-x="347" 
d="M303 131q0 -50 5 -67t24 -17h11v-47q-39 0 -64.5 10.5t-26.5 38.5q-6 -9 -15.5 -19.5t-22.5 -19.5t-29.5 -15t-37.5 -6q-26 0 -50 14t-42.5 45.5t-30 83.5t-11.5 127q0 71 10 119t26.5 77t38 41.5t45.5 12.5q28 0 55 -12t39 -35q0 34 -1 70.5t-2.5 67.5t-3 54t-2.5 32
q-2 15 -10 23t-27 8v47h122v-633zM166 462q-13 0 -24.5 -9t-20 -33t-13.5 -66t-5 -108q0 -59 2.5 -99.5t8.5 -65t17.5 -35t29.5 -10.5q12 0 23 6.5t19.5 17t14.5 22.5t8 23v286q-7 26 -22 48.5t-38 22.5z" />
    <glyph glyph-name="e" unicode="e" horiz-adv-x="322" 
d="M167 509q32 0 58.5 -11.5t45.5 -39t29.5 -73t10.5 -112.5h-203q0 -46 3 -88t11.5 -74.5t24.5 -51.5t42 -19q35 0 60 23.5t32 56.5l22 -5q-3 -24 -12.5 -47t-25.5 -40.5t-39 -28t-53 -10.5q-69 0 -108.5 65.5t-39.5 206.5q0 248 142 248zM171 462q-26 0 -43 -36t-20 -108
h124q0 72 -13 108t-48 36z" />
    <glyph glyph-name="f" unicode="f" horiz-adv-x="211" 
d="M244 690q0 -39 -17 -57.5t-39 -18.5q-24 0 -38.5 18t-14.5 45q0 29 10 47.5t36 23.5q-3 16 -14.5 26.5t-26.5 10.5q-48 0 -48 -94q0 -19 3.5 -39t8 -43.5t8.5 -50.5t4 -60h95v-47h-96q0 -94 0.5 -160.5t2 -111.5t4 -71.5t7.5 -40t12 -17t17 -3.5h16v-47h-174v47
q11 0 18.5 3t12.5 16t8 38.5t4.5 70.5t2 112t0.5 164h-49v47h49q0 59 -8.5 105t-8.5 84q0 75 31 105.5t82 30.5q24 0 42.5 -11t32 -29.5t20.5 -42.5t7 -50z" />
    <glyph glyph-name="g" unicode="g" horiz-adv-x="315" 
d="M163 509q23 0 42.5 -5.5t31.5 -20.5q7 48 23 75.5t50 27.5q14 0 22.5 -10.5t8.5 -26.5q0 -17 -8 -28.5t-23 -11.5q-10 0 -18.5 6.5t-10.5 17.5q-12 -16 -22 -68q4 -5 12 -20t15.5 -37t13 -50t5.5 -58q0 -46 -9.5 -85t-27 -67.5t-40.5 -45t-50 -16.5q-14 0 -27 3
q-40 -3 -40 -16q0 -11 19 -28t70 -56q38 -30 53 -71t15 -75q0 -20 -7.5 -41.5t-24 -39t-43.5 -28.5t-66 -11q-63 0 -100 33t-37 109q0 33 9 56.5t24.5 40.5t36 29.5t43.5 23.5q-27 8 -39.5 24.5t-12.5 28.5q0 21 16.5 28t45.5 8q-92 35 -92 196q0 46 10.5 84.5t29 66.5
t44.5 43t58 15zM163 462q-12 0 -22.5 -5t-18 -17.5t-11.5 -33.5t-4 -53v-109q0 -63 16 -89t40 -26q26 0 41 25.5t15 89.5v109q0 64 -15 86.5t-41 22.5zM135 -237q15 0 27.5 7t22 18t14.5 24.5t5 26.5q0 57 -20 94t-55 65q-33 -17 -44.5 -52t-11.5 -71q0 -63 14.5 -87.5
t47.5 -24.5z" />
    <glyph glyph-name="h" unicode="h" horiz-adv-x="389" 
d="M144 812v-64.5t-0.5 -84t-1.5 -95l-2 -96.5q11 19 36 28t48 9q42 0 65.5 -19t35.5 -49.5t14.5 -69.5t2.5 -79v-214q0 -31 37 -31v-47h-160v47q27 0 33 17.5t6 59.5v255q0 43 -16.5 63.5t-41.5 20.5q-60 0 -60 -110q0 -60 1.5 -127t2.5 -148q3 -19 8.5 -25t27.5 -6v-47
h-160v47q36 0 38 32q2 79 3.5 155t1.5 154q0 67 -1.5 155.5t-3.5 190.5q-2 20 -7.5 26t-22.5 6q-7 0 -8 -1v47h124z" />
    <glyph glyph-name="i" unicode="i" horiz-adv-x="191" 
d="M96 768q24 0 38.5 -23t14.5 -50q0 -30 -14.5 -52.5t-38.5 -22.5q-23 0 -38.5 22.5t-15.5 52.5q0 12 3.5 25t10.5 23.5t17 17.5t23 7zM19 498h123q-2 -19 -3 -54.5t-1 -83.5v-182q0 -46 1 -72.5t4.5 -39.5t10 -16t18.5 -3h7v-47h-160v47h12q11 0 17.5 2.5t9.5 15.5t4 39
t1 74v131q0 46 -1.5 74t-6 43t-11.5 20t-18 5h-7v47z" />
    <glyph glyph-name="j" unicode="j" horiz-adv-x="170" 
d="M97 765q24 0 39 -23t15 -51t-15 -51t-39 -23q-23 0 -38 23t-15 51t15 51t38 23zM144 498q-2 -35 -3.5 -82t-3 -100t-2.5 -111t-1 -116v-145q0 -103 -34.5 -162t-97.5 -59q-57 0 -90 42.5t-33 108.5q0 25 14.5 47.5t39.5 22.5q23 0 38.5 -23t15.5 -51q0 -53 -38 -70
q1 -30 53 -30q22 0 34.5 16.5t19 52t8 91t1.5 133.5v285q0 57 -7 80t-18 23h-28v47h132z" />
    <glyph glyph-name="k" unicode="k" horiz-adv-x="346" 
d="M366 0h-62q-19 0 -34.5 6t-30 21.5t-29.5 43t-32 70.5l-25.5 61t-19.5 35v-111q0 -45 4.5 -62t24.5 -17h12v-47h-159v47h12q10 0 15.5 3t8.5 15.5t3.5 38t0.5 69.5v501q0 29 -1.5 47t-4.5 27.5t-8.5 13t-13.5 3.5h-12v47h123q-3 -41 -4.5 -92.5t-2 -107t-0.5 -112.5v-109
v-128q62 69 85 112.5t23 57.5q0 18 -14 18h-19v47h124v-47h-9q-15 0 -27.5 -16.5t-27.5 -43t-35.5 -58.5t-52.5 -63q14 -12 33 -46.5t47 -91.5q42 -85 108 -85v-47z" />
    <glyph glyph-name="l" unicode="l" horiz-adv-x="191" 
d="M141 812q-2 -118 -3.5 -231t-1.5 -228q0 -60 2 -127t3 -148q2 -19 7.5 -25t28.5 -6v-47h-160v47q36 0 38 32q2 79 3 155t1 154q0 67 -1 155t-3 191q-2 20 -8 26t-22 6q-7 0 -8 -1v47h124z" />
    <glyph glyph-name="m" unicode="m" horiz-adv-x="561" 
d="M550 0h-160v47h15q17 0 20.5 16t3.5 62v240q0 48 -15 69.5t-43 21.5q-24 0 -36.5 -16.5t-12.5 -55.5v-306q0 -20 7.5 -25.5t20.5 -5.5h9v-47h-148v47h10q27 0 27 31v306q0 39 -12 55.5t-38 16.5q-22 0 -34 -13t-17 -34t-6 -48.5t-1 -56.5v-130q0 -44 0.5 -69.5t2 -38.5
t5.5 -16.5t10 -3.5h21v-46h-160v47h12q10 0 16 3.5t9 17t3.5 40t0.5 72.5v131q0 43 -0.5 70.5t-3.5 43t-9.5 21t-18.5 5.5h-10v47h22q24 0 40 -12t31 -38q31 61 97 61q32 0 52.5 -17t34.5 -46q15 34 45 48.5t63 14.5q54 0 82 -35.5t28 -108.5v-240q0 -47 6 -62.5t22 -15.5h9
v-47z" />
    <glyph glyph-name="n" unicode="n" horiz-adv-x="370" 
d="M198 509q27 0 51 -9t41.5 -27t28 -45t10.5 -63v-240q0 -47 5.5 -62.5t22.5 -15.5h5v-47h-156v47h14q17 0 21 16t4 62v240q0 43 -14 67t-43 24q-22 0 -34 -13t-17 -34t-6 -48.5t-1 -56.5v-130q0 -44 0.5 -69.5t2 -38.5t5.5 -16.5t10 -3.5h21v-46h-160v47h12q10 0 15.5 3.5
t8.5 17t4 40t1 72.5v131q0 43 -0.5 70.5t-3.5 43t-9.5 21t-18.5 5.5h-10v47h22q24 0 40 -12t31 -38q31 61 97 61z" />
    <glyph glyph-name="o" unicode="o" horiz-adv-x="309" 
d="M153 509q30 0 56 -12.5t45 -41.5t30 -78.5t11 -122.5q0 -76 -11 -127t-30 -81.5t-45 -43.5t-56 -13t-56 12.5t-45 43t-30 81.5t-11 128q0 73 11 122.5t30 78.5t45 41.5t56 12.5zM153 462q-19 0 -29.5 -10.5t-16 -35t-6.5 -66.5t-1 -105t1 -103.5t6.5 -64t16 -32.5
t29.5 -9t29.5 9t16 32.5t7 64t1.5 103.5t-1.5 105t-7 66.5t-16 35t-29.5 10.5z" />
    <glyph glyph-name="p" unicode="p" horiz-adv-x="349" 
d="M201 509q30 0 54 -11.5t40 -38.5t24.5 -73t8.5 -115q0 -63 -4 -115t-17 -89t-36.5 -57.5t-62.5 -20.5q-57 0 -83 47q0 -35 1 -70.5t2.5 -67t3 -54.5t2.5 -32q2 -16 10 -23.5t27 -7.5v-47h-163v47q14 0 22 4t12.5 15.5t5.5 32t1 54.5v480q0 50 -5 67t-24 17h-11v47
q39 0 65 -11t27 -39q12 22 35.5 41.5t64.5 19.5zM182 35q13 0 23.5 9t17.5 33t11 66t4 108q0 59 -1.5 99t-6.5 65t-15 35.5t-28 10.5q-13 0 -23 -7t-17.5 -17.5t-12.5 -23t-8 -22.5v-286q7 -26 20 -48t36 -22z" />
    <glyph glyph-name="q" unicode="q" horiz-adv-x="356" 
d="M370 -160v-38q0 -35 -18 -57t-46 -22q-25 0 -40 11t-23.5 30t-11.5 45t-3 55v164q-10 -18 -33 -28.5t-52 -10.5q-23 0 -45 12t-38.5 43.5t-26.5 85.5t-10 137q0 81 11.5 129t30 73t42 32.5t46.5 7.5q26 0 53.5 -15t46.5 -46q9 25 25.5 37.5t34.5 12.5h33v-47h-14
q-20 0 -23.5 -13t-3.5 -42v-558q0 -57 18 -57q14 0 14 26v33h33zM166 35q23 0 36 22t19 48v286q-2 10 -7.5 22.5t-13 23t-17.5 17.5t-22 7q-18 0 -28 -10.5t-15 -35.5t-6.5 -65t-1.5 -99q0 -66 3.5 -108t11 -66t17.5 -33t24 -9z" />
    <glyph glyph-name="r" unicode="r" horiz-adv-x="277" 
d="M195 509q45 0 67.5 -32.5t22.5 -87.5q0 -34 -15.5 -57.5t-37.5 -23.5q-25 0 -39.5 19.5t-14.5 50.5q0 53 43 53q0 31 -34 31q-35 0 -46.5 -31t-11.5 -94v-180q0 -61 5 -85.5t23 -24.5h14v-47h-160v47h20q15 0 19 24.5t4 85.5v180q0 38 -1.5 60.5t-5.5 34.5t-9.5 15.5
t-14.5 3.5h-12v47h29q47 0 68 -62q15 36 35.5 54.5t51.5 18.5z" />
    <glyph glyph-name="s" unicode="s" horiz-adv-x="289" 
d="M249 498v-135h-33q0 99 -65 99q-22 0 -36.5 -13.5t-14.5 -44.5q0 -30 13 -48.5t33 -33t42.5 -28.5t42.5 -34.5t33 -51.5t13 -78q0 -34 -11 -60t-30.5 -44t-45 -27.5t-54.5 -9.5q-51 0 -88 32t-44 84l28 10q9 -33 36 -56t59 -23q33 0 49.5 22.5t16.5 51.5q0 30 -12.5 52.5
t-31 41.5t-40 36.5t-40 38.5t-31 47t-12.5 63q0 54 31.5 87t83.5 33q29 0 46.5 -10.5t28.5 -27.5v27h33z" />
    <glyph glyph-name="t" unicode="t" horiz-adv-x="206" 
d="M196 498v-47h-69v-366q0 -49 26 -49q28 0 29 49h29q-1 -19 -5.5 -36.5t-13 -30.5t-21.5 -21t-31 -8q-45 0 -70 28.5t-25 86.5v347h-45v47q19 0 36.5 17.5t31 46t21 64.5t7.5 73h31v-201h69z" />
    <glyph glyph-name="u" unicode="u" horiz-adv-x="344" 
d="M206 498h132v-47h-14q-11 0 -17 -12t-6 -50v-246q0 -75 -32 -114.5t-102 -39.5q-54 0 -87.5 37.5t-33.5 116.5v246q0 36 -5.5 49t-19.5 13h-13v47h160v-47h-17q-17 0 -21 -21t-4 -67v-219q0 -61 15.5 -84.5t45.5 -23.5q29 0 44 23.5t15 84.5v219q0 46 -4 67t-23 21h-13
v47z" />
    <glyph glyph-name="v" unicode="v" horiz-adv-x="304" 
d="M303 451h-3q-22 0 -28 -32l-85 -419h-60l-91 419q-8 24 -12 28t-15 4h-6v47h156v-47h-11q-27 0 -27 -20q0 -9 1 -12l59 -290l54 300q0 22 -29 22h-9v47h106v-47z" />
    <glyph glyph-name="w" unicode="w" horiz-adv-x="475" 
d="M473 451h-9q-20 0 -24 -28l-64 -423h-60l-79 347l-77 -347h-59l-65 419q-5 32 -21 32h-12v47h164v-47h-19q-28 0 -28 -15q0 -3 0.5 -7t1.5 -10l29 -287l82 366h53l75 -366l38 294q0 25 -27 25h-19v47h120v-47z" />
    <glyph glyph-name="x" unicode="x" horiz-adv-x="327" 
d="M319 0h-160v47h9q30 0 30 20q-2 8 -4 18t-5 20l-41 114l-43 -112q-9 -23 -9 -35q0 -13 7.5 -19t26.5 -6h5v-47h-123v47h3q12 0 20.5 3t15 11t12.5 21.5l15 34.5l56 134l-78 167q-8 17 -19 25t-22 8h-3v47h156v-47h-4q-31 0 -31 -20q0 -11 7 -26l41 -113l40 108q7 18 7 29
q0 22 -20 22h-11v47h117v-47h-2q-32 0 -48 -33l-68 -161l80 -179q13 -31 40 -31h3v-47z" />
    <glyph glyph-name="y" unicode="y" horiz-adv-x="320" 
d="M315 498v-47h-12q-12 0 -16.5 -8t-6.5 -24l-90 -524q-12 -76 -39 -124t-75 -48q-31 0 -55 31.5t-24 98.5q0 42 17.5 60t43.5 18t39 -19.5t13 -49.5q0 -29 -14 -46.5t-37 -20.5q4 -12 9 -18.5t19 -6.5q18 0 35 30.5t25 94.5l12 94l-115 430q-6 21 -11.5 26.5t-16.5 5.5h-8
v47h159v-47h-17q-21 0 -21 -15q0 -5 0.5 -11.5t1.5 -11.5l58 -284l51 271q4 13 4 29q0 22 -30 22h-9v47h110z" />
    <glyph glyph-name="z" unicode="z" horiz-adv-x="296" 
d="M282 0h-270v47l186 359h-122q-23 0 -23 -60h-35v152h254v-47l-187 -359h138q23 0 23 61h36v-153z" />
    <glyph glyph-name="braceleft" unicode="{" horiz-adv-x="249" 
d="M139 -123q9 -30 30.5 -51t51.5 -31v-28q-43 4 -82 20.5t-73 44.5v387l-66 71l66 69v363q25 37 65.5 60t89.5 32v-21q-46 -13 -82 -58v-399l-44 -46l44 -47v-366z" />
    <glyph glyph-name="bar" unicode="|" horiz-adv-x="130" 
d="M84 -266h-40v1078h40v-1078z" />
    <glyph glyph-name="braceright" unicode="}" horiz-adv-x="249" 
d="M83 243l43 47l-43 46v399q-35 45 -83 58v21q49 -9 90 -32t65 -60v-363l66 -69l-66 -71v-387q-33 -28 -71.5 -44.5t-83.5 -20.5v28q30 10 52 31t31 51v366z" />
    <glyph glyph-name="asciitilde" unicode="~" horiz-adv-x="433" 
d="M401 423q0 -18 -5 -36t-16.5 -31.5t-28.5 -22t-41 -8.5q-39 0 -62 13.5t-41.5 29t-38 29t-51.5 13.5q-22 0 -30 -20t-9 -46h-38q2 54 24 87t81 33q37 0 61 -13t43.5 -28.5t38.5 -28.5t46 -13q15 0 21.5 14t11.5 52h34v-24z" />
    <glyph glyph-name="exclamdown" unicode="&#xa1;" horiz-adv-x="185" 
d="M92 -154q-27 0 -41.5 21.5t-14.5 50.5q0 76 6.5 132t15 107.5t15 106t6.5 126.5l26 1v-1q0 -72 7.5 -125.5t16 -104.5t16 -107.5t7.5 -133.5q0 -29 -16 -51t-44 -22zM92 464q-13 0 -23 6.5t-17 17t-10.5 24t-3.5 26.5q0 29 15 52t39 23q23 0 37.5 -23t14.5 -52
q0 -13 -4 -26t-10.5 -23.5t-16 -17.5t-21.5 -7z" />
    <glyph glyph-name="cent" unicode="&#xa2;" horiz-adv-x="435" 
d="M251 592q30 0 55.5 -6.5t44 -18.5t29 -28t10.5 -35q0 -16 -16.5 -30t-35.5 -14q-42 0 -42 41q0 3 2 12t2 16q0 31 -49 35v-325q84 0 121 55l26 -13q-9 -23 -25.5 -39.5t-36.5 -28.5t-42 -18.5t-43 -7.5v-187h-34v187q-42 1 -74 17t-54 42t-33.5 60.5t-11.5 73.5
q0 37 10.5 72t32.5 63t54 47t76 26v176h34v-172zM134 412q0 -60 20.5 -104.5t62.5 -61.5v314q-21 -7 -36.5 -23t-26 -36.5t-15.5 -44t-5 -44.5z" />
    <glyph glyph-name="sterling" unicode="&#xa3;" horiz-adv-x="455" 
d="M352 792q48 0 71 -23t23 -59q0 -26 -10 -45t-32 -19q-16 0 -26 12.5t-10 36.5q0 17 5.5 27.5t12.5 15.5q-16 16 -42 16q-23 0 -38.5 -18t-25 -48.5t-16 -71t-13 -86t-15 -93.5t-21.5 -93h113v-44h-128q-11 -29 -21.5 -51.5t-22 -41.5t-24.5 -36t-29 -35q34 24 64 24
q22 0 46 -21.5t46 -60.5q31 -58 79 -58q41 0 85 59l17 -17q-44 -80 -149 -80q-67 0 -102 74q-30 61 -73 61q-15 0 -27 -11.5t-22 -29t-18.5 -38l-16.5 -39.5l-22 32q15 33 31.5 59t40.5 41q16 35 32 75t31 94h-57v44h69q12 47 21 98.5l18 101t20.5 95t29.5 79.5t43.5 54
t62.5 20z" />
    <glyph glyph-name="yen" unicode="&#xa5;" horiz-adv-x="404" 
d="M376 384h-114l-23 -69v-26h137v-52h-137v-155q0 -20 7 -27.5t18 -7.5h9v-47h-143v47h11q12 0 18.5 7.5t6.5 27.5v155h-144v52h144v26l-24 69h-120v49h104l-84 253q-6 19 -12 25.5t-20 6.5q-3 0 -4 -1v47h172v-47l-24 1q-14 0 -14 -21q2 -5 1.5 -12t3.5 -20l79 -267
l81 286q4 11 4 21q0 13 -18 13h-20v46h129v-46h-13q-12 0 -17 -11l-92 -274h98v-49z" />
    <glyph glyph-name="dieresis" unicode="&#xa8;" horiz-adv-x="225" 
d="M188 645q16 0 26.5 -12.5t10.5 -29.5t-10.5 -29.5t-26.5 -12.5q-37 0 -37 42q0 17 10 29.5t27 12.5zM58 645q17 0 27 -12.5t10 -29.5t-10 -29.5t-27 -12.5q-37 0 -37 42t37 42z" />
    <glyph glyph-name="copyright" unicode="&#xa9;" horiz-adv-x="826" 
d="M27 396q0 82 29.5 153.5t81 125t120 84.5t146.5 31t146.5 -31t120 -84.5t81 -125t29.5 -153.5q0 -81 -29.5 -153t-81 -126t-120 -85t-146.5 -31t-146.5 31t-120 85t-81 126t-29.5 153zM72 395q0 -73 26 -136.5t71.5 -111t106 -74.5t129.5 -27t130 27t106.5 74.5t72 111
t26.5 136.5q0 72 -26.5 135.5t-72 111.5t-106.5 76t-130 28t-129.5 -28t-106 -76t-71.5 -111.5t-26 -135.5zM531 309q-9 -36 -40.5 -60t-74.5 -24q-73 0 -116 43.5t-43 143.5q0 41 14 71t36.5 49t51.5 28t58 9q46 0 74.5 -19.5t28.5 -57.5q0 -27 -14 -41.5t-37 -14.5t-37 13
t-14 33q0 18 9 26.5t27 13.5q-1 11 -15 15.5t-30 4.5q-14 0 -26 -5.5t-22 -19.5t-15.5 -39.5t-5.5 -65.5q0 -82 19.5 -116.5t56.5 -34.5q34 0 58 12.5t33 39.5z" />
    <glyph glyph-name="guillemotleft" unicode="&#xab;" horiz-adv-x="374" 
d="M310 122l-134 153l134 152l13 -19l-84 -133l84 -136zM154 122l-135 153l135 152l14 -19l-85 -133l85 -136z" />
    <glyph glyph-name="registered" unicode="&#xae;" horiz-adv-x="569" 
d="M280 766q-47 0 -84.5 -16.5t-64 -43.5t-40.5 -61.5t-14 -69.5q0 -36 14 -70.5t40.5 -61.5t64 -44t84.5 -17q44 0 83 15t68.5 41t46.5 61t17 76q0 35 -16 69.5t-44.5 61.5t-68 43.5t-86.5 16.5zM281 339q-55 0 -101 19.5t-79.5 52t-52 75t-18.5 89.5q0 48 18.5 91t52 75.5
t79.5 51.5t101 19t101.5 -18.5t80.5 -50.5t53.5 -75.5t19.5 -92.5q0 -47 -19.5 -89.5t-54 -75t-81 -52t-100.5 -19.5zM253 648v-59h42q27 0 27 28q0 31 -27 31h-42zM280 537h-27v-94h-51v256h92q36 0 58 -21.5t22 -60.5q0 -25 -10.5 -41.5t-32.5 -30.5l46 -102h-54z" />
    <glyph glyph-name="acute" unicode="&#xb4;" horiz-adv-x="166" 
d="M69 651h95l-119 -103h-38z" />
    <glyph glyph-name="paragraph" unicode="&#xb6;" horiz-adv-x="526" 
d="M475 764l8 -28l-47 -40v-696h-52v700h-138v-700h-51v394q-85 4 -131.5 51t-46.5 132q0 94 43.5 140.5t125.5 46.5h289z" />
    <glyph glyph-name="periodcentered" unicode="&#xb7;" horiz-adv-x="150" 
d="M21 319zM74 468q13 0 23 -6.5t16.5 -17t10 -24t3.5 -26.5q0 -29 -15 -52t-38 -23q-24 0 -38.5 23t-14.5 52q0 13 4 26t10.5 23.5t16.5 17.5t22 7z" />
    <glyph glyph-name="cedilla" unicode="&#xb8;" horiz-adv-x="162" 
d="M134 25l-40 -80q5 1 11.5 1.5t14.5 0.5q16 0 27 -11.5t11 -30.5q0 -34 -23.5 -58.5t-71.5 -24.5v18q52 22 52 49q0 20 -34 20l-31 34l42 82h42z" />
    <glyph glyph-name="guillemotright" unicode="&#xbb;" horiz-adv-x="374" 
d="M174 139l85 136l-85 133l14 19l135 -152l-135 -153zM19 139l84 136l-84 133l13 19l135 -152l-135 -153z" />
    <glyph glyph-name="questiondown" unicode="&#xbf;" horiz-adv-x="296" 
d="M18 21q0 44 12 79t30 63.5t39.5 52t39.5 45.5t30 43t12 45q0 21 -7 33.5t-26 13.5v29q33 0 51.5 -22.5t18.5 -56.5q0 -23 -2 -44.5t-11 -39.5q-13 -25 -30.5 -48.5t-33 -51t-26.5 -62t-11 -81.5q0 -38 4 -62.5t11.5 -38.5t18 -19.5t22.5 -5.5q51 0 54 30q-38 17 -38 70
q0 28 15 51t38 23q25 0 39.5 -24t14.5 -61q0 -32 -10.5 -57.5t-28.5 -43t-42.5 -26.5t-52.5 -9q-29 0 -53 9t-41 29.5t-27 54t-10 82.5zM120 546q0 29 14.5 52t37.5 23q24 0 39 -23t15 -52q0 -13 -3.5 -26.5t-10.5 -24t-17 -17t-23 -6.5q-23 0 -37.5 23t-14.5 51z" />
    <glyph glyph-name="Agrave" unicode="&#xc0;" horiz-adv-x="408" 
d="M8 0zM404 0h-160v47h9q30 0 30 21q0 5 -1.5 15.5t-3.5 27.5l-13 89h-164l-16 -84q-3 -16 -3 -28t-1 -20q0 -21 29 -21h9v-47h-111v47h7q21 0 30 32l115 598q1 5 1.5 9.5t0.5 9.5q0 21 -28 21h-17v47h116l135 -685q9 -32 27 -32h9v-47zM258 246l-72 369l-76 -369h148z
M283 814h-39l-119 103h95z" />
    <glyph glyph-name="Aacute" unicode="&#xc1;" horiz-adv-x="408" 
d="M8 0zM404 0h-160v47h9q30 0 30 21q0 5 -1.5 15.5t-3.5 27.5l-13 89h-164l-16 -84q-3 -16 -3 -28t-1 -20q0 -21 29 -21h9v-47h-111v47h7q21 0 30 32l115 598q1 5 1.5 9.5t0.5 9.5q0 21 -28 21h-17v47h116l135 -685q9 -32 27 -32h9v-47zM258 246l-72 369l-76 -369h148z
M188 917h95l-119 -103h-38z" />
    <glyph glyph-name="Acircumflex" unicode="&#xc2;" horiz-adv-x="408" 
d="M8 0zM404 0h-160v47h9q30 0 30 21q0 5 -1.5 15.5t-3.5 27.5l-13 89h-164l-16 -84q-3 -16 -3 -28t-1 -20q0 -21 29 -21h9v-47h-111v47h7q21 0 30 32l115 598q1 5 1.5 9.5t0.5 9.5q0 21 -28 21h-17v47h116l135 -685q9 -32 27 -32h9v-47zM258 246l-72 369l-76 -369h148z
M308 816h-39l-66 71l-64 -71h-39l74 103h60z" />
    <glyph glyph-name="Atilde" unicode="&#xc3;" horiz-adv-x="408" 
d="M8 0zM404 0h-160v47h9q30 0 30 21q0 5 -1.5 15.5t-3.5 27.5l-13 89h-164l-16 -84q-3 -16 -3 -28t-1 -20q0 -21 29 -21h9v-47h-111v47h7q21 0 30 32l115 598q1 5 1.5 9.5t0.5 9.5q0 21 -28 21h-17v47h116l135 -685q9 -32 27 -32h9v-47zM258 246l-72 369l-76 -369h148z
M317 896q0 -24 -13.5 -43.5t-44.5 -19.5q-23 0 -37.5 8.5t-26.5 19t-24.5 19t-32.5 8.5q-13 0 -18 -13t-6 -30h-24q1 35 15 56t51 21q24 0 38.5 -8.5t26.5 -18t24 -18t30 -8.5q9 0 13.5 9t6.5 33h22v-15z" />
    <glyph glyph-name="Adieresis" unicode="&#xc4;" horiz-adv-x="408" 
d="M8 0zM404 0h-160v47h9q30 0 30 21q0 5 -1.5 15.5t-3.5 27.5l-13 89h-164l-16 -84q-3 -16 -3 -28t-1 -20q0 -21 29 -21h9v-47h-111v47h7q21 0 30 32l115 598q1 5 1.5 9.5t0.5 9.5q0 21 -28 21h-17v47h116l135 -685q9 -32 27 -32h9v-47zM258 246l-72 369l-76 -369h148z
M269 911q16 0 26.5 -12.5t10.5 -29.5t-10.5 -29.5t-26.5 -12.5q-37 0 -37 42q0 17 10 29.5t27 12.5zM139 911q17 0 27 -12.5t10 -29.5t-10 -29.5t-27 -12.5q-37 0 -37 42t37 42z" />
    <glyph glyph-name="Aring" unicode="&#xc5;" horiz-adv-x="408" 
d="M8 0zM404 0h-160v47h9q30 0 30 21q0 5 -1.5 15.5t-3.5 27.5l-13 89h-164l-16 -84q-3 -16 -3 -28t-1 -20q0 -21 29 -21h9v-47h-111v47h7q21 0 30 32l115 598q1 5 1.5 9.5t0.5 9.5q0 21 -28 21h-17v47h116l135 -685q9 -32 27 -32h9v-47zM258 246l-72 369l-76 -369h148z
M203 903q33 0 57.5 -19t24.5 -50t-24.5 -50t-57.5 -19q-32 0 -56.5 19t-24.5 50t24.5 50t56.5 19zM203 877q-27 0 -27 -46q0 -45 27 -45t27 45q0 46 -27 46z" />
    <glyph glyph-name="AE" unicode="&#xc6;" horiz-adv-x="571" 
d="M264 764h262v-108h-36q0 61 -24 61h-41q-14 0 -22.5 -5.5t-13 -31.5t-6 -79t-1.5 -147h60q28 0 28 53v7h34v-168h-34v4q0 57 -28 57h-60v-304q0 -34 8 -45.5t24 -11.5h88q24 0 24 61h34v-107h-306v47h9q13 0 21 2t12.5 8.5t6 19.5t1.5 34v89h-164l-32 -84q-8 -20 -10 -34
t-4 -19q0 -16 26 -16h9v-47h-111v47h7q20 0 37 32l228 598q2 7 4 13t2 11q0 16 -24 16h-8v47zM306 246v369l-148 -369h148z" />
    <glyph glyph-name="Ccedilla" unicode="&#xc7;" horiz-adv-x="348" 
d="M338 123q-2 -26 -11.5 -50.5t-25.5 -43t-37.5 -29.5t-47.5 -11q-8 0 -15.5 0.5t-14.5 1.5l-23 -46q5 1 11.5 1.5t14.5 0.5q17 0 27.5 -11.5t10.5 -30.5q0 -34 -23.5 -58.5t-71.5 -24.5v18q53 23 53 49q0 20 -35 20l-30 34l28 57q-78 27 -107 125t-29 269q0 78 10 145.5
t33.5 117.5t62.5 78.5t97 28.5q25 0 46.5 -12t37.5 -30.5t25 -42t9 -45.5q0 -42 -14 -66t-39 -24q-23 0 -35.5 20t-12.5 51q0 52 33 72q-23 30 -54 30q-30 0 -51 -24t-35 -67.5t-20.5 -104.5t-6.5 -135q0 -73 2.5 -137t14 -111t34 -74.5t62.5 -27.5t64.5 26t35.5 61h27z" />
    <glyph glyph-name="Egrave" unicode="&#xc8;" horiz-adv-x="327" 
d="M11 0zM11 764h260v-108h-36q0 61 -24 61h-41q-14 0 -22.5 -5.5t-13 -31.5t-6 -79t-1.5 -147h60q28 0 28 53v7h34v-168h-34v4q0 57 -28 57h-60v-191q0 -56 1.5 -89.5t5.5 -51.5t11 -23.5t19 -5.5h83q24 0 24 61h34v-107h-294v46h14q29 0 29 90v397q0 62 -1.5 98.5t-5 56
t-11 25t-19.5 5.5h-6v46zM242 814h-39l-119 103h95z" />
    <glyph glyph-name="Eacute" unicode="&#xc9;" horiz-adv-x="327" 
d="M11 0zM11 764h260v-108h-36q0 61 -24 61h-41q-14 0 -22.5 -5.5t-13 -31.5t-6 -79t-1.5 -147h60q28 0 28 53v7h34v-168h-34v4q0 57 -28 57h-60v-191q0 -56 1.5 -89.5t5.5 -51.5t11 -23.5t19 -5.5h83q24 0 24 61h34v-107h-294v46h14q29 0 29 90v397q0 62 -1.5 98.5t-5 56
t-11 25t-19.5 5.5h-6v46zM146 917h95l-119 -103h-38z" />
    <glyph glyph-name="Ecircumflex" unicode="&#xca;" horiz-adv-x="327" 
d="M11 0zM11 764h260v-108h-36q0 61 -24 61h-41q-14 0 -22.5 -5.5t-13 -31.5t-6 -79t-1.5 -147h60q28 0 28 53v7h34v-168h-34v4q0 57 -28 57h-60v-191q0 -56 1.5 -89.5t5.5 -51.5t11 -23.5t19 -5.5h83q24 0 24 61h34v-107h-294v46h14q29 0 29 90v397q0 62 -1.5 98.5t-5 56
t-11 25t-19.5 5.5h-6v46zM267 816h-39l-66 71l-64 -71h-39l74 103h60z" />
    <glyph glyph-name="Edieresis" unicode="&#xcb;" horiz-adv-x="327" 
d="M11 0zM11 764h260v-108h-36q0 61 -24 61h-41q-14 0 -22.5 -5.5t-13 -31.5t-6 -79t-1.5 -147h60q28 0 28 53v7h34v-168h-34v4q0 57 -28 57h-60v-191q0 -56 1.5 -89.5t5.5 -51.5t11 -23.5t19 -5.5h83q24 0 24 61h34v-107h-294v46h14q29 0 29 90v397q0 62 -1.5 98.5t-5 56
t-11 25t-19.5 5.5h-6v46zM228 911q16 0 26.5 -12.5t10.5 -29.5t-10.5 -29.5t-26.5 -12.5q-37 0 -37 42q0 17 10 29.5t27 12.5zM98 911q17 0 27 -12.5t10 -29.5t-10 -29.5t-27 -12.5q-37 0 -37 42t37 42z" />
    <glyph glyph-name="Igrave" unicode="&#xcc;" horiz-adv-x="221" 
d="M30 0zM147 126q0 -42 7 -60.5t27 -18.5h9v-47h-160v47h10q23 0 28.5 23t5.5 55v454q0 76 -5 107.5t-29 31.5h-10v46h160v-46h-11q-21 0 -26.5 -22t-5.5 -79v-491zM189 814h-39l-119 103h95z" />
    <glyph glyph-name="Iacute" unicode="&#xcd;" horiz-adv-x="221" 
d="M30 0zM147 126q0 -42 7 -60.5t27 -18.5h9v-47h-160v47h10q23 0 28.5 23t5.5 55v454q0 76 -5 107.5t-29 31.5h-10v46h160v-46h-11q-21 0 -26.5 -22t-5.5 -79v-491zM94 917h95l-119 -103h-38z" />
    <glyph glyph-name="Icircumflex" unicode="&#xce;" horiz-adv-x="221" 
d="M10 0zM147 126q0 -42 7 -60.5t27 -18.5h9v-47h-160v47h10q23 0 28.5 23t5.5 55v454q0 76 -5 107.5t-29 31.5h-10v46h160v-46h-11q-21 0 -26.5 -22t-5.5 -79v-491zM218 816h-39l-66 71l-64 -71h-39l74 103h60z" />
    <glyph glyph-name="Idieresis" unicode="&#xcf;" horiz-adv-x="221" 
d="M12 0zM147 126q0 -42 7 -60.5t27 -18.5h9v-47h-160v47h10q23 0 28.5 23t5.5 55v454q0 76 -5 107.5t-29 31.5h-10v46h160v-46h-11q-21 0 -26.5 -22t-5.5 -79v-491zM179 911q16 0 26.5 -12.5t10.5 -29.5t-10.5 -29.5t-26.5 -12.5q-37 0 -37 42q0 17 10 29.5t27 12.5z
M49 911q17 0 27 -12.5t10 -29.5t-10 -29.5t-27 -12.5q-37 0 -37 42t37 42z" />
    <glyph glyph-name="Eth" unicode="&#xd0;" horiz-adv-x="386" 
d="M12 764h188q169 0 169 -340q0 -133 -11.5 -215.5t-34 -129t-54.5 -63t-72 -16.5h-185v46h9q16 0 25 6.5t9 38.5v266h-35v59h35v257q0 29 -8.5 37t-24.5 8h-10v46zM202 357h-77v-266q0 -17 8 -31t18 -14h21q33 0 54.5 28t34 77t17.5 116.5t5 146.5q0 56 -4 110.5
t-15.5 97.5t-33.5 69.5t-58 26.5h-18q-13 0 -21 -9.5t-8 -35.5v-257h77v-59z" />
    <glyph glyph-name="Ntilde" unicode="&#xd1;" horiz-adv-x="417" 
d="M16 0zM403 718h-8q-17 0 -27 -15t-10 -52v-531q0 -29 1.5 -59t5.5 -61h-72l-198 649v-545q0 -29 10 -43.5t25 -14.5h9v-46h-123v46h9q19 0 26 10t7 48v529q0 28 -2 45t-6 26t-10 11.5t-14 2.5h-10v46h125l179 -604v484q0 46 -7.5 60t-22.5 14h-12v46h125v-46zM322 896
q0 -24 -13.5 -43.5t-44.5 -19.5q-23 0 -37.5 8.5t-26.5 19t-24.5 19t-32.5 8.5q-13 0 -18 -13t-6 -30h-24q1 35 15 56t51 21q24 0 38.5 -8.5t26.5 -18t24 -18t30 -8.5q9 0 13.5 9t6.5 33h22v-15z" />
    <glyph glyph-name="Ograve" unicode="&#xd2;" 
d="M21 0zM195 775q45 0 78.5 -20.5t56 -65t33.5 -115t11 -171.5q0 -414 -188 -414q-39 0 -69.5 16t-52 57t-32.5 111.5t-11 178.5q0 423 174 423zM195 728q-88 0 -88 -362q0 -74 2 -134.5t11 -104t26.5 -67.5t48.5 -24q92 0 92 344q0 70 -2.5 133t-11.5 111t-27.5 76
t-50.5 28zM274 814h-39l-119 103h95z" />
    <glyph glyph-name="Oacute" unicode="&#xd3;" 
d="M21 0zM195 775q45 0 78.5 -20.5t56 -65t33.5 -115t11 -171.5q0 -414 -188 -414q-39 0 -69.5 16t-52 57t-32.5 111.5t-11 178.5q0 423 174 423zM195 728q-88 0 -88 -362q0 -74 2 -134.5t11 -104t26.5 -67.5t48.5 -24q92 0 92 344q0 70 -2.5 133t-11.5 111t-27.5 76
t-50.5 28zM179 917h95l-119 -103h-38z" />
    <glyph glyph-name="Ocircumflex" unicode="&#xd4;" 
d="M21 0zM195 775q45 0 78.5 -20.5t56 -65t33.5 -115t11 -171.5q0 -414 -188 -414q-39 0 -69.5 16t-52 57t-32.5 111.5t-11 178.5q0 423 174 423zM195 728q-88 0 -88 -362q0 -74 2 -134.5t11 -104t26.5 -67.5t48.5 -24q92 0 92 344q0 70 -2.5 133t-11.5 111t-27.5 76
t-50.5 28zM299 816h-39l-66 71l-64 -71h-39l74 103h60z" />
    <glyph glyph-name="Otilde" unicode="&#xd5;" 
d="M21 0zM195 775q45 0 78.5 -20.5t56 -65t33.5 -115t11 -171.5q0 -414 -188 -414q-39 0 -69.5 16t-52 57t-32.5 111.5t-11 178.5q0 423 174 423zM195 728q-88 0 -88 -362q0 -74 2 -134.5t11 -104t26.5 -67.5t48.5 -24q92 0 92 344q0 70 -2.5 133t-11.5 111t-27.5 76
t-50.5 28zM308 896q0 -24 -13.5 -43.5t-44.5 -19.5q-23 0 -37.5 8.5t-26.5 19t-24.5 19t-32.5 8.5q-13 0 -18 -13t-6 -30h-24q1 35 15 56t51 21q24 0 38.5 -8.5t26.5 -18t24 -18t30 -8.5q9 0 13.5 9t6.5 33h22v-15z" />
    <glyph glyph-name="Odieresis" unicode="&#xd6;" 
d="M21 0zM195 775q45 0 78.5 -20.5t56 -65t33.5 -115t11 -171.5q0 -414 -188 -414q-39 0 -69.5 16t-52 57t-32.5 111.5t-11 178.5q0 423 174 423zM195 728q-88 0 -88 -362q0 -74 2 -134.5t11 -104t26.5 -67.5t48.5 -24q92 0 92 344q0 70 -2.5 133t-11.5 111t-27.5 76
t-50.5 28zM260 911q16 0 26.5 -12.5t10.5 -29.5t-10.5 -29.5t-26.5 -12.5q-37 0 -37 42q0 17 10 29.5t27 12.5zM130 911q17 0 27 -12.5t10 -29.5t-10 -29.5t-27 -12.5q-37 0 -37 42t37 42z" />
    <glyph glyph-name="Oslash" unicode="&#xd8;" 
d="M327 764l-14 -48q30 -43 45.5 -119t15.5 -194q0 -414 -188 -414q-39 0 -70 15l-1 -4h-51l11 42q-26 40 -40 113.5t-14 196.5q0 423 174 423q43 0 77 -19l2 8h53zM195 36q92 0 92 344q0 60 -1.5 113.5t-7.5 98.5l-143 -516q22 -40 60 -40zM195 728q-88 0 -88 -362
q0 -54 0.5 -101.5t5.5 -86.5l140 510q-21 40 -58 40z" />
    <glyph glyph-name="Ugrave" unicode="&#xd9;" horiz-adv-x="419" 
d="M9 0zM410 718h-14q-16 0 -21 -8.5t-5 -36.5v-467q0 -50 -7 -90t-24 -68.5t-44.5 -43.5t-68.5 -15t-73.5 10.5t-55 36.5t-35 70t-12.5 111v456q0 27 -5 36t-25 9h-11v46h167v-46h-19q-25 0 -25 -45v-456q0 -51 3.5 -86t13.5 -56t28.5 -30t48.5 -9t50 8t33 28.5t18.5 55.5
t5.5 89v456q0 28 -6.5 36.5t-23.5 8.5h-17v46h124v-46zM289 814h-39l-119 103h95z" />
    <glyph glyph-name="Uacute" unicode="&#xda;" horiz-adv-x="419" 
d="M9 0zM410 718h-14q-16 0 -21 -8.5t-5 -36.5v-467q0 -50 -7 -90t-24 -68.5t-44.5 -43.5t-68.5 -15t-73.5 10.5t-55 36.5t-35 70t-12.5 111v456q0 27 -5 36t-25 9h-11v46h167v-46h-19q-25 0 -25 -45v-456q0 -51 3.5 -86t13.5 -56t28.5 -30t48.5 -9t50 8t33 28.5t18.5 55.5
t5.5 89v456q0 28 -6.5 36.5t-23.5 8.5h-17v46h124v-46zM193 917h95l-119 -103h-38z" />
    <glyph glyph-name="Ucircumflex" unicode="&#xdb;" horiz-adv-x="419" 
d="M9 0zM410 718h-14q-16 0 -21 -8.5t-5 -36.5v-467q0 -50 -7 -90t-24 -68.5t-44.5 -43.5t-68.5 -15t-73.5 10.5t-55 36.5t-35 70t-12.5 111v456q0 27 -5 36t-25 9h-11v46h167v-46h-19q-25 0 -25 -45v-456q0 -51 3.5 -86t13.5 -56t28.5 -30t48.5 -9t50 8t33 28.5t18.5 55.5
t5.5 89v456q0 28 -6.5 36.5t-23.5 8.5h-17v46h124v-46zM313 816h-39l-66 71l-64 -71h-39l74 103h60z" />
    <glyph glyph-name="Udieresis" unicode="&#xdc;" horiz-adv-x="419" 
d="M9 0zM410 718h-14q-16 0 -21 -8.5t-5 -36.5v-467q0 -50 -7 -90t-24 -68.5t-44.5 -43.5t-68.5 -15t-73.5 10.5t-55 36.5t-35 70t-12.5 111v456q0 27 -5 36t-25 9h-11v46h167v-46h-19q-25 0 -25 -45v-456q0 -51 3.5 -86t13.5 -56t28.5 -30t48.5 -9t50 8t33 28.5t18.5 55.5
t5.5 89v456q0 28 -6.5 36.5t-23.5 8.5h-17v46h124v-46zM274 911q16 0 26.5 -12.5t10.5 -29.5t-10.5 -29.5t-26.5 -12.5q-37 0 -37 42q0 17 10 29.5t27 12.5zM144 911q17 0 27 -12.5t10 -29.5t-10 -29.5t-27 -12.5q-37 0 -37 42t37 42z" />
    <glyph glyph-name="Yacute" unicode="&#xdd;" horiz-adv-x="404" 
d="M6 0zM400 718h-13q-12 0 -17 -11l-131 -392v-233q0 -20 7 -27.5t18 -7.5h9v-47h-143v47h11q12 0 18.5 7.5t6.5 27.5v233l-124 371q-7 19 -13 25.5t-19 6.5q-3 0 -4 -1v47h172v-47l-24 1q-14 0 -14 -21q2 -5 1.5 -12t3.5 -20l79 -275l81 294q4 11 4 21q0 13 -18 13h-20v46
h129v-46zM185 917h95l-119 -103h-38z" />
    <glyph glyph-name="Thorn" unicode="&#xde;" horiz-adv-x="355" 
d="M170 764v-46h-11q-10 0 -16.5 -3t-10 -14t-5 -33.5t-1.5 -62.5h76q142 0 142 -176q0 -223 -142 -223h-76v-67q0 -48 7.5 -70t29.5 -22h8v-47h-160v47h8q19 0 27 11.5t8 49.5v495q0 63 -6 89t-28 26h-10v46h160zM161 559q-22 0 -28.5 -13.5t-6.5 -53.5v-236h52
q80 0 80 157q0 52 -4.5 81.5t-14.5 44t-25 17.5t-36 3h-17z" />
    <glyph glyph-name="germandbls" unicode="&#xdf;" horiz-adv-x="320" 
d="M157 824q36 0 61 -14.5t40 -38.5t21.5 -56.5t6.5 -68.5q0 -42 -4.5 -73t-12.5 -53.5t-19.5 -38.5t-26.5 -28q34 -17 55 -75t21 -143q0 -52 -11 -95.5t-30 -75.5t-45 -50t-56 -18v46q13 7 23.5 19t17.5 33t10.5 54.5t3.5 83.5q0 187 -49 187h-22v45h23q12 0 20.5 7.5
t14 27.5t8 54.5t2.5 87.5q0 41 -4 67.5t-10.5 41.5t-16 21t-21.5 6q-15 0 -28.5 -20.5t-13.5 -54.5v-702h-112v46h7q9 0 19 12t10 33v564q0 82 32 125.5t86 43.5z" />
    <glyph glyph-name="agrave" unicode="&#xe0;" horiz-adv-x="353" 
d="M11 0zM359 72q0 -32 -17 -55.5t-47 -23.5q-43 0 -65 51q-25 -25 -52.5 -40t-63.5 -15q-46 0 -74.5 28.5t-28.5 88.5q0 40 21.5 72.5t53 57.5t68 43t65.5 29v47q0 34 -5.5 55t-14 32t-17 15t-14.5 4q-25 0 -41 -8.5t-24 -21.5q16 -6 26.5 -21t10.5 -38q0 -28 -14.5 -46
t-39.5 -18q-22 0 -37 18t-15 50q0 33 12 57.5t32 41t46 25t54 8.5q60 0 89 -34.5t29 -112.5v-287q0 -23 16 -23q13 0 13 36v6q0 2 -0.5 6.5t-0.5 10.5h35v-38zM218 268q-22 -10 -45 -22.5t-42 -29t-31 -39t-12 -52.5q0 -31 18 -53.5t39 -22.5q13 0 25 5t21.5 13.5t16.5 18.5
t10 19v163zM238 548h-39l-119 103h95z" />
    <glyph glyph-name="aacute" unicode="&#xe1;" horiz-adv-x="353" 
d="M11 0zM359 72q0 -32 -17 -55.5t-47 -23.5q-43 0 -65 51q-25 -25 -52.5 -40t-63.5 -15q-46 0 -74.5 28.5t-28.5 88.5q0 40 21.5 72.5t53 57.5t68 43t65.5 29v47q0 34 -5.5 55t-14 32t-17 15t-14.5 4q-25 0 -41 -8.5t-24 -21.5q16 -6 26.5 -21t10.5 -38q0 -28 -14.5 -46
t-39.5 -18q-22 0 -37 18t-15 50q0 33 12 57.5t32 41t46 25t54 8.5q60 0 89 -34.5t29 -112.5v-287q0 -23 16 -23q13 0 13 36v6q0 2 -0.5 6.5t-0.5 10.5h35v-38zM218 268q-22 -10 -45 -22.5t-42 -29t-31 -39t-12 -52.5q0 -31 18 -53.5t39 -22.5q13 0 25 5t21.5 13.5t16.5 18.5
t10 19v163zM179 651h95l-119 -103h-38z" />
    <glyph glyph-name="acircumflex" unicode="&#xe2;" horiz-adv-x="353" 
d="M11 0zM359 72q0 -32 -17 -55.5t-47 -23.5q-43 0 -65 51q-25 -25 -52.5 -40t-63.5 -15q-46 0 -74.5 28.5t-28.5 88.5q0 40 21.5 72.5t53 57.5t68 43t65.5 29v47q0 34 -5.5 55t-14 32t-17 15t-14.5 4q-25 0 -41 -8.5t-24 -21.5q16 -6 26.5 -21t10.5 -38q0 -28 -14.5 -46
t-39.5 -18q-22 0 -37 18t-15 50q0 33 12 57.5t32 41t46 25t54 8.5q60 0 89 -34.5t29 -112.5v-287q0 -23 16 -23q13 0 13 36v6q0 2 -0.5 6.5t-0.5 10.5h35v-38zM218 268q-22 -10 -45 -22.5t-42 -29t-31 -39t-12 -52.5q0 -31 18 -53.5t39 -22.5q13 0 25 5t21.5 13.5t16.5 18.5
t10 19v163zM281 550h-39l-66 71l-64 -71h-39l74 103h60z" />
    <glyph glyph-name="atilde" unicode="&#xe3;" horiz-adv-x="353" 
d="M11 0zM359 72q0 -32 -17 -55.5t-47 -23.5q-43 0 -65 51q-25 -25 -52.5 -40t-63.5 -15q-46 0 -74.5 28.5t-28.5 88.5q0 40 21.5 72.5t53 57.5t68 43t65.5 29v47q0 34 -5.5 55t-14 32t-17 15t-14.5 4q-25 0 -41 -8.5t-24 -21.5q16 -6 26.5 -21t10.5 -38q0 -28 -14.5 -46
t-39.5 -18q-22 0 -37 18t-15 50q0 33 12 57.5t32 41t46 25t54 8.5q60 0 89 -34.5t29 -112.5v-287q0 -23 16 -23q13 0 13 36v6q0 2 -0.5 6.5t-0.5 10.5h35v-38zM218 268q-22 -10 -45 -22.5t-42 -29t-31 -39t-12 -52.5q0 -31 18 -53.5t39 -22.5q13 0 25 5t21.5 13.5t16.5 18.5
t10 19v163zM289 630q0 -24 -13.5 -43.5t-44.5 -19.5q-23 0 -37.5 8.5t-26.5 19t-24.5 19t-32.5 8.5q-13 0 -18 -13t-6 -30h-24q1 35 15 56t51 21q24 0 38.5 -8.5t26.5 -18t24 -18t30 -8.5q9 0 13.5 9t6.5 33h22v-15z" />
    <glyph glyph-name="adieresis" unicode="&#xe4;" horiz-adv-x="353" 
d="M11 0zM359 72q0 -32 -17 -55.5t-47 -23.5q-43 0 -65 51q-25 -25 -52.5 -40t-63.5 -15q-46 0 -74.5 28.5t-28.5 88.5q0 40 21.5 72.5t53 57.5t68 43t65.5 29v47q0 34 -5.5 55t-14 32t-17 15t-14.5 4q-25 0 -41 -8.5t-24 -21.5q16 -6 26.5 -21t10.5 -38q0 -28 -14.5 -46
t-39.5 -18q-22 0 -37 18t-15 50q0 33 12 57.5t32 41t46 25t54 8.5q60 0 89 -34.5t29 -112.5v-287q0 -23 16 -23q13 0 13 36v6q0 2 -0.5 6.5t-0.5 10.5h35v-38zM218 268q-22 -10 -45 -22.5t-42 -29t-31 -39t-12 -52.5q0 -31 18 -53.5t39 -22.5q13 0 25 5t21.5 13.5t16.5 18.5
t10 19v163zM242 645q16 0 26.5 -12.5t10.5 -29.5t-10.5 -29.5t-26.5 -12.5q-37 0 -37 42q0 17 10 29.5t27 12.5zM112 645q17 0 27 -12.5t10 -29.5t-10 -29.5t-27 -12.5q-37 0 -37 42t37 42z" />
    <glyph glyph-name="aring" unicode="&#xe5;" horiz-adv-x="353" 
d="M11 0zM359 72q0 -32 -17 -55.5t-47 -23.5q-43 0 -65 51q-25 -25 -52.5 -40t-63.5 -15q-46 0 -74.5 28.5t-28.5 88.5q0 40 21.5 72.5t53 57.5t68 43t65.5 29v47q0 34 -5.5 55t-14 32t-17 15t-14.5 4q-25 0 -41 -8.5t-24 -21.5q16 -6 26.5 -21t10.5 -38q0 -28 -14.5 -46
t-39.5 -18q-22 0 -37 18t-15 50q0 33 12 57.5t32 41t46 25t54 8.5q60 0 89 -34.5t29 -112.5v-287q0 -23 16 -23q13 0 13 36v6q0 2 -0.5 6.5t-0.5 10.5h35v-38zM218 268q-22 -10 -45 -22.5t-42 -29t-31 -39t-12 -52.5q0 -31 18 -53.5t39 -22.5q13 0 25 5t21.5 13.5t16.5 18.5
t10 19v163zM176 637q33 0 57.5 -19t24.5 -50t-24.5 -50t-57.5 -19q-32 0 -56.5 19t-24.5 50t24.5 50t56.5 19zM176 611q-27 0 -27 -46q0 -45 27 -45t27 45q0 46 -27 46z" />
    <glyph glyph-name="ae" unicode="&#xe6;" horiz-adv-x="507" 
d="M355 509q32 0 58.5 -11.5t45.5 -39t29.5 -73t10.5 -112.5h-203q0 -46 3 -88t11.5 -74.5t24.5 -51.5t42 -19q35 0 60 23.5t32 56.5l22 -5q-3 -24 -12.5 -47t-25.5 -40.5t-39 -28t-53 -10.5q-71 0 -103 74q-25 -29 -53.5 -51.5t-68.5 -22.5q-60 0 -90 34t-30 98
q0 39 21.5 68.5t53 52t67.5 39t66 27.5v47q0 34 -5.5 55t-14 32t-17.5 15t-15 4q-24 0 -40.5 -8.5t-24.5 -21.5q16 -6 26.5 -21t10.5 -38q0 -28 -14.5 -46t-38.5 -18q-23 0 -38 18t-15 50q0 33 12.5 57.5t32.5 41t46 25t53 8.5q63 0 89 -41q28 42 84 42zM223 268
q-23 -10 -46 -22.5t-42 -29t-30.5 -39t-11.5 -52.5q0 -31 18.5 -50.5t39.5 -19.5q26 0 46 15.5t26 34.5v163zM359 462q-26 0 -43 -36t-20 -108h123q0 72 -12.5 108t-47.5 36z" />
    <glyph glyph-name="ccedilla" unicode="&#xe7;" horiz-adv-x="295" 
d="M301 115q-5 -27 -16 -50t-27 -40t-36 -26.5t-42 -9.5h-10t-10 1l-22 -45q5 1 11.5 1.5t13.5 0.5q17 0 27.5 -11.5t10.5 -30.5q0 -34 -23.5 -58.5t-71.5 -24.5v18q53 23 53 49q0 20 -35 20l-30 34l28 57q-51 20 -79 85t-28 186q0 63 14.5 108t38 74t53.5 42.5t60 13.5
q48 0 78 -30.5t30 -87.5q0 -40 -15 -61.5t-39 -21.5t-38.5 19.5t-14.5 48.5q0 27 9 39.5t28 21.5q-1 17 -15 23.5t-31 6.5q-14 0 -27 -8t-23 -29.5t-16 -59.5t-6 -99q0 -123 20 -176t59 -53q36 0 60.5 20t34.5 60z" />
    <glyph glyph-name="egrave" unicode="&#xe8;" horiz-adv-x="322" 
d="M25 0zM167 509q32 0 58.5 -11.5t45.5 -39t29.5 -73t10.5 -112.5h-203q0 -46 3 -88t11.5 -74.5t24.5 -51.5t42 -19q35 0 60 23.5t32 56.5l22 -5q-3 -24 -12.5 -47t-25.5 -40.5t-39 -28t-53 -10.5q-69 0 -108.5 65.5t-39.5 206.5q0 248 142 248zM171 462q-26 0 -43 -36
t-20 -108h124q0 72 -13 108t-48 36zM224 548h-39l-119 103h95z" />
    <glyph glyph-name="eacute" unicode="&#xe9;" horiz-adv-x="322" 
d="M25 0zM167 509q32 0 58.5 -11.5t45.5 -39t29.5 -73t10.5 -112.5h-203q0 -46 3 -88t11.5 -74.5t24.5 -51.5t42 -19q35 0 60 23.5t32 56.5l22 -5q-3 -24 -12.5 -47t-25.5 -40.5t-39 -28t-53 -10.5q-69 0 -108.5 65.5t-39.5 206.5q0 248 142 248zM171 462q-26 0 -43 -36
t-20 -108h124q0 72 -13 108t-48 36zM174 651h95l-119 -103h-38z" />
    <glyph glyph-name="ecircumflex" unicode="&#xea;" horiz-adv-x="322" 
d="M25 0zM167 509q32 0 58.5 -11.5t45.5 -39t29.5 -73t10.5 -112.5h-203q0 -46 3 -88t11.5 -74.5t24.5 -51.5t42 -19q35 0 60 23.5t32 56.5l22 -5q-3 -24 -12.5 -47t-25.5 -40.5t-39 -28t-53 -10.5q-69 0 -108.5 65.5t-39.5 206.5q0 248 142 248zM171 462q-26 0 -43 -36
t-20 -108h124q0 72 -13 108t-48 36zM276 550h-39l-66 71l-64 -71h-39l74 103h60z" />
    <glyph glyph-name="edieresis" unicode="&#xeb;" horiz-adv-x="322" 
d="M25 0zM167 509q32 0 58.5 -11.5t45.5 -39t29.5 -73t10.5 -112.5h-203q0 -46 3 -88t11.5 -74.5t24.5 -51.5t42 -19q35 0 60 23.5t32 56.5l22 -5q-3 -24 -12.5 -47t-25.5 -40.5t-39 -28t-53 -10.5q-69 0 -108.5 65.5t-39.5 206.5q0 248 142 248zM171 462q-26 0 -43 -36
t-20 -108h124q0 72 -13 108t-48 36zM232 645q16 0 26.5 -12.5t10.5 -29.5t-10.5 -29.5t-26.5 -12.5q-37 0 -37 42q0 17 10 29.5t27 12.5zM102 645q17 0 27 -12.5t10 -29.5t-10 -29.5t-27 -12.5q-37 0 -37 42t37 42z" />
    <glyph glyph-name="igrave" unicode="&#xec;" horiz-adv-x="207" 
d="M0 0zM19 498h123q-2 -19 -3 -54.5t-1 -83.5v-182q0 -46 1 -72.5t4.5 -39.5t10 -16t18.5 -3h7v-47h-160v47h12q11 0 17.5 2.5t9.5 15.5t4 39t1 74v131q0 46 -1.5 74t-6 43t-11.5 20t-18 5h-7v47zM139 548h-39l-119 103h95z" />
    <glyph glyph-name="iacute" unicode="&#xed;" horiz-adv-x="207" 
d="M19 0zM19 498h123q-2 -19 -3 -54.5t-1 -83.5v-182q0 -46 1 -72.5t4.5 -39.5t10 -16t18.5 -3h7v-47h-160v47h12q11 0 17.5 2.5t9.5 15.5t4 39t1 74v131q0 46 -1.5 74t-6 43t-11.5 20t-18 5h-7v47zM109 651h95l-119 -103h-38z" />
    <glyph glyph-name="icircumflex" unicode="&#xee;" horiz-adv-x="207" 
d="M0 0zM19 498h123q-2 -19 -3 -54.5t-1 -83.5v-182q0 -46 1 -72.5t4.5 -39.5t10 -16t18.5 -3h7v-47h-160v47h12q11 0 17.5 2.5t9.5 15.5t4 39t1 74v131q0 46 -1.5 74t-6 43t-11.5 20t-18 5h-7v47zM200 550h-39l-66 71l-64 -71h-39l74 103h60z" />
    <glyph glyph-name="idieresis" unicode="&#xef;" horiz-adv-x="207" 
d="M0 0zM19 498h123q-2 -19 -3 -54.5t-1 -83.5v-182q0 -46 1 -72.5t4.5 -39.5t10 -16t18.5 -3h7v-47h-160v47h12q11 0 17.5 2.5t9.5 15.5t4 39t1 74v131q0 46 -1.5 74t-6 43t-11.5 20t-18 5h-7v47zM161 645q16 0 26.5 -12.5t10.5 -29.5t-10.5 -29.5t-26.5 -12.5
q-37 0 -37 42q0 17 10 29.5t27 12.5zM31 645q17 0 27 -12.5t10 -29.5t-10 -29.5t-27 -12.5q-37 0 -37 42t37 42z" />
    <glyph glyph-name="eth" unicode="&#xf0;" horiz-adv-x="318" 
d="M139 509q29 0 47.5 -10.5t37.5 -36.5q-3 78 -16.5 132t-33.5 90.5t-46 59.5t-53 40l4 28q46 -13 86.5 -41t71 -87.5t48 -159t17.5 -254.5q0 -62 -10 -113.5t-29 -89t-46.5 -58t-61.5 -20.5q-30 0 -55 17.5t-43 50t-28 79.5t-10 106q0 75 9 126t24.5 82.5t37.5 45t49 13.5
zM169 462q-35 0 -49.5 -51t-14.5 -157q0 -114 14 -166t36 -52q35 0 52 48.5t17 135.5v211q-17 17 -27.5 24t-27.5 7z" />
    <glyph glyph-name="ntilde" unicode="&#xf1;" horiz-adv-x="370" 
d="M8 0zM198 509q27 0 51 -9t41.5 -27t28 -45t10.5 -63v-240q0 -47 5.5 -62.5t22.5 -15.5h5v-47h-156v47h14q17 0 21 16t4 62v240q0 43 -14 67t-43 24q-22 0 -34 -13t-17 -34t-6 -48.5t-1 -56.5v-130q0 -44 0.5 -69.5t2 -38.5t5.5 -16.5t10 -3.5h21v-46h-160v47h12
q10 0 15.5 3.5t8.5 17t4 40t1 72.5v131q0 43 -0.5 70.5t-3.5 43t-9.5 21t-18.5 5.5h-10v47h22q24 0 40 -12t31 -38q31 61 97 61zM287 630q0 -24 -13.5 -43.5t-44.5 -19.5q-23 0 -37.5 8.5t-26.5 19t-24.5 19t-32.5 8.5q-13 0 -18 -13t-6 -30h-24q1 35 15 56t51 21
q24 0 38.5 -8.5t26.5 -18t24 -18t30 -8.5q9 0 13.5 9t6.5 33h22v-15z" />
    <glyph glyph-name="ograve" unicode="&#xf2;" horiz-adv-x="309" 
d="M11 0zM153 509q30 0 56 -12.5t45 -41.5t30 -78.5t11 -122.5q0 -76 -11 -127t-30 -81.5t-45 -43.5t-56 -13t-56 12.5t-45 43t-30 81.5t-11 128q0 73 11 122.5t30 78.5t45 41.5t56 12.5zM153 462q-19 0 -29.5 -10.5t-16 -35t-6.5 -66.5t-1 -105t1 -103.5t6.5 -64t16 -32.5
t29.5 -9t29.5 9t16 32.5t7 64t1.5 103.5t-1.5 105t-7 66.5t-16 35t-29.5 10.5zM206 548h-39l-119 103h95z" />
    <glyph glyph-name="oacute" unicode="&#xf3;" horiz-adv-x="309" 
d="M11 0zM153 509q30 0 56 -12.5t45 -41.5t30 -78.5t11 -122.5q0 -76 -11 -127t-30 -81.5t-45 -43.5t-56 -13t-56 12.5t-45 43t-30 81.5t-11 128q0 73 11 122.5t30 78.5t45 41.5t56 12.5zM153 462q-19 0 -29.5 -10.5t-16 -35t-6.5 -66.5t-1 -105t1 -103.5t6.5 -64t16 -32.5
t29.5 -9t29.5 9t16 32.5t7 64t1.5 103.5t-1.5 105t-7 66.5t-16 35t-29.5 10.5zM148 651h95l-119 -103h-38z" />
    <glyph glyph-name="ocircumflex" unicode="&#xf4;" horiz-adv-x="309" 
d="M11 0zM153 509q30 0 56 -12.5t45 -41.5t30 -78.5t11 -122.5q0 -76 -11 -127t-30 -81.5t-45 -43.5t-56 -13t-56 12.5t-45 43t-30 81.5t-11 128q0 73 11 122.5t30 78.5t45 41.5t56 12.5zM153 462q-19 0 -29.5 -10.5t-16 -35t-6.5 -66.5t-1 -105t1 -103.5t6.5 -64t16 -32.5
t29.5 -9t29.5 9t16 32.5t7 64t1.5 103.5t-1.5 105t-7 66.5t-16 35t-29.5 10.5zM258 550h-39l-66 71l-64 -71h-39l74 103h60z" />
    <glyph glyph-name="otilde" unicode="&#xf5;" horiz-adv-x="309" 
d="M11 0zM153 509q30 0 56 -12.5t45 -41.5t30 -78.5t11 -122.5q0 -76 -11 -127t-30 -81.5t-45 -43.5t-56 -13t-56 12.5t-45 43t-30 81.5t-11 128q0 73 11 122.5t30 78.5t45 41.5t56 12.5zM153 462q-19 0 -29.5 -10.5t-16 -35t-6.5 -66.5t-1 -105t1 -103.5t6.5 -64t16 -32.5
t29.5 -9t29.5 9t16 32.5t7 64t1.5 103.5t-1.5 105t-7 66.5t-16 35t-29.5 10.5zM267 630q0 -24 -13.5 -43.5t-44.5 -19.5q-23 0 -37.5 8.5t-26.5 19t-24.5 19t-32.5 8.5q-13 0 -18 -13t-6 -30h-24q1 35 15 56t51 21q24 0 38.5 -8.5t26.5 -18t24 -18t30 -8.5q9 0 13.5 9
t6.5 33h22v-15z" />
    <glyph glyph-name="odieresis" unicode="&#xf6;" horiz-adv-x="309" 
d="M11 0zM153 509q30 0 56 -12.5t45 -41.5t30 -78.5t11 -122.5q0 -76 -11 -127t-30 -81.5t-45 -43.5t-56 -13t-56 12.5t-45 43t-30 81.5t-11 128q0 73 11 122.5t30 78.5t45 41.5t56 12.5zM153 462q-19 0 -29.5 -10.5t-16 -35t-6.5 -66.5t-1 -105t1 -103.5t6.5 -64t16 -32.5
t29.5 -9t29.5 9t16 32.5t7 64t1.5 103.5t-1.5 105t-7 66.5t-16 35t-29.5 10.5zM219 645q16 0 26.5 -12.5t10.5 -29.5t-10.5 -29.5t-26.5 -12.5q-37 0 -37 42q0 17 10 29.5t27 12.5zM89 645q17 0 27 -12.5t10 -29.5t-10 -29.5t-27 -12.5q-37 0 -37 42t37 42z" />
    <glyph glyph-name="oslash" unicode="&#xf8;" horiz-adv-x="309" 
d="M270 519l-22 -56q23 -29 35 -79.5t12 -129.5q0 -76 -11 -127t-30 -81.5t-45 -43.5t-56 -13q-42 0 -76 26l-9 -25h-51l27 70q-16 32 -24.5 78.5t-8.5 115.5q0 73 11 122.5t30 78.5t45 41.5t56 12.5q32 0 55 -12l9 22h53zM153 36q19 0 29.5 9t16 32.5t7 64t1.5 103.5v58
t-1 47l-101 -263q6 -29 16.5 -40t31.5 -11zM153 462q-19 0 -29.5 -10.5t-16 -35t-6.5 -66.5t-1 -105v-37l89 236q-11 18 -36 18z" />
    <glyph glyph-name="ugrave" unicode="&#xf9;" horiz-adv-x="344" 
d="M8 0zM206 498h132v-47h-14q-11 0 -17 -12t-6 -50v-246q0 -75 -32 -114.5t-102 -39.5q-54 0 -87.5 37.5t-33.5 116.5v246q0 36 -5.5 49t-19.5 13h-13v47h160v-47h-17q-17 0 -21 -21t-4 -67v-219q0 -61 15.5 -84.5t45.5 -23.5q29 0 44 23.5t15 84.5v219q0 46 -4 67t-23 21
h-13v47zM210 548h-39l-119 103h95z" />
    <glyph glyph-name="uacute" unicode="&#xfa;" horiz-adv-x="344" 
d="M8 0zM206 498h132v-47h-14q-11 0 -17 -12t-6 -50v-246q0 -75 -32 -114.5t-102 -39.5q-54 0 -87.5 37.5t-33.5 116.5v246q0 36 -5.5 49t-19.5 13h-13v47h160v-47h-17q-17 0 -21 -21t-4 -67v-219q0 -61 15.5 -84.5t45.5 -23.5q29 0 44 23.5t15 84.5v219q0 46 -4 67t-23 21
h-13v47zM186 651h95l-119 -103h-38z" />
    <glyph glyph-name="ucircumflex" unicode="&#xfb;" horiz-adv-x="344" 
d="M8 0zM206 498h132v-47h-14q-11 0 -17 -12t-6 -50v-246q0 -75 -32 -114.5t-102 -39.5q-54 0 -87.5 37.5t-33.5 116.5v246q0 36 -5.5 49t-19.5 13h-13v47h160v-47h-17q-17 0 -21 -21t-4 -67v-219q0 -61 15.5 -84.5t45.5 -23.5q29 0 44 23.5t15 84.5v219q0 46 -4 67t-23 21
h-13v47zM285 550h-39l-66 71l-64 -71h-39l74 103h60z" />
    <glyph glyph-name="udieresis" unicode="&#xfc;" horiz-adv-x="344" 
d="M8 0zM206 498h132v-47h-14q-11 0 -17 -12t-6 -50v-246q0 -75 -32 -114.5t-102 -39.5q-54 0 -87.5 37.5t-33.5 116.5v246q0 36 -5.5 49t-19.5 13h-13v47h160v-47h-17q-17 0 -21 -21t-4 -67v-219q0 -61 15.5 -84.5t45.5 -23.5q29 0 44 23.5t15 84.5v219q0 46 -4 67t-23 21
h-13v47zM237 645q16 0 26.5 -12.5t10.5 -29.5t-10.5 -29.5t-26.5 -12.5q-37 0 -37 42q0 17 10 29.5t27 12.5zM107 645q17 0 27 -12.5t10 -29.5t-10 -29.5t-27 -12.5q-37 0 -37 42t37 42z" />
    <glyph glyph-name="yacute" unicode="&#xfd;" horiz-adv-x="320" 
d="M0 0zM315 498v-47h-12q-12 0 -16.5 -8t-6.5 -24l-90 -524q-12 -76 -39 -124t-75 -48q-31 0 -55 31.5t-24 98.5q0 42 17.5 60t43.5 18t39 -19.5t13 -49.5q0 -29 -14 -46.5t-37 -20.5q4 -12 9 -18.5t19 -6.5q18 0 35 30.5t25 94.5l12 94l-115 430q-6 21 -11.5 26.5
t-16.5 5.5h-8v47h159v-47h-17q-21 0 -21 -15q0 -5 0.5 -11.5t1.5 -11.5l58 -284l51 271q4 13 4 29q0 22 -30 22h-9v47h110zM171 651h95l-119 -103h-38z" />
    <glyph glyph-name="thorn" unicode="&#xfe;" horiz-adv-x="349" 
d="M131 812q-1 -43 -2.5 -94t-2.5 -100t-2 -89.5t-1 -62.5q15 18 34 30.5t44 12.5q30 0 54 -11.5t40 -38.5t24.5 -73t8.5 -115q0 -63 -4 -115t-17 -89t-36.5 -57.5t-62.5 -20.5q-57 0 -83 47q0 -35 1 -70.5t2.5 -67t3 -54.5t2.5 -32q2 -16 10 -23.5t27 -7.5v-47h-163v47
q14 0 22 4t12.5 15.5t5.5 32t1 54.5v480q0 11 -0.5 39t-0.5 65t-1 78.5t-1 79t-0.5 66t-0.5 39.5q-3 20 -8.5 26t-21.5 6q-7 0 -8 -1v47h124zM182 35q13 0 23.5 9t17.5 33t11 66t4 108q0 59 -1.5 99t-6.5 65t-15 35.5t-28 10.5q-13 0 -23 -7t-17.5 -17.5t-12.5 -23t-8 -22.5
v-286q7 -26 20 -48t36 -22z" />
    <glyph glyph-name="ydieresis" unicode="&#xff;" horiz-adv-x="320" 
d="M0 0zM315 498v-47h-12q-12 0 -16.5 -8t-6.5 -24l-90 -524q-12 -76 -39 -124t-75 -48q-31 0 -55 31.5t-24 98.5q0 42 17.5 60t43.5 18t39 -19.5t13 -49.5q0 -29 -14 -46.5t-37 -20.5q4 -12 9 -18.5t19 -6.5q18 0 35 30.5t25 94.5l12 94l-115 430q-6 21 -11.5 26.5
t-16.5 5.5h-8v47h159v-47h-17q-21 0 -21 -15q0 -5 0.5 -11.5t1.5 -11.5l58 -284l51 271q4 13 4 29q0 22 -30 22h-9v47h110zM236 645q16 0 26.5 -12.5t10.5 -29.5t-10.5 -29.5t-26.5 -12.5q-37 0 -37 42q0 17 10 29.5t27 12.5zM106 645q17 0 27 -12.5t10 -29.5t-10 -29.5
t-27 -12.5q-37 0 -37 42t37 42z" />
    <glyph glyph-name="dotlessi" unicode="&#x131;" horiz-adv-x="193" 
d="M19 498h123q-2 -19 -3 -54.5t-1 -83.5v-182q0 -46 1 -72.5t4.5 -39.5t10 -16t18.5 -3h7v-47h-160v47h12q11 0 17.5 2.5t9.5 15.5t4 39t1 74v131q0 46 -1.5 74t-6 43t-11.5 20t-18 5h-7v47z" />
    <glyph glyph-name="Lslash" unicode="&#x141;" horiz-adv-x="297" 
d="M251 493l-130 -118v-251q0 -39 5.5 -58t27.5 -19h78q23 0 23 60h36v-107h-287v47h14q21 0 25.5 23.5t4.5 65.5v172l-29 -26l-26 30l55 50v188q0 58 -2 91.5t-5.5 50.5t-9.5 21.5t-14 4.5h-13v46h160v-46h-10q-11 0 -17 -6.5t-10 -27t-5 -59t-1 -102.5v-95l103 95z" />
    <glyph glyph-name="lslash" unicode="&#x142;" horiz-adv-x="191" 
d="M141 812q-2 -88 -3.5 -173.5t-1.5 -172.5l62 57l27 -30l-89 -80v-60q0 -60 2 -127t3 -148q2 -19 7.5 -25t28.5 -6v-47h-160v47q36 0 38 32q2 69 2.5 133t1.5 130l-66 -60l-25 30l91 84q0 67 -1 152.5t-3 185.5q-2 20 -8 26t-22 6q-7 0 -8 -1v47h124z" />
    <glyph glyph-name="OE" unicode="&#x152;" horiz-adv-x="548" 
d="M195 775q33 0 58 -11h252v-108h-35q0 61 -24 61h-41q-14 0 -22.5 -5.5t-13 -31.5t-6 -79t-1.5 -147h60q28 0 28 53v7h34v-168h-34v4q0 57 -28 57h-60v-191q0 -56 1.5 -89.5t5 -51.5t11 -23.5t19.5 -5.5h83q23 0 23 61h35v-107h-294v3q-13 -6 -27.5 -10t-32.5 -4
q-39 0 -69.5 16t-52 57t-32.5 111.5t-11 178.5q0 423 174 423zM195 728q-88 0 -88 -362q0 -74 2 -134.5t11 -104t26.5 -67.5t48.5 -24q92 0 92 344q0 70 -2.5 133t-11.5 111t-27.5 76t-50.5 28z" />
    <glyph glyph-name="oe" unicode="&#x153;" horiz-adv-x="505" 
d="M347 509q32 0 58.5 -11.5t45.5 -39t29.5 -73t10.5 -112.5h-202q0 -46 2.5 -88t11 -74.5t24.5 -51.5t42 -19q35 0 60 23.5t32 56.5l22 -5q-3 -24 -12.5 -47t-25.5 -40.5t-39 -28t-53 -10.5q-69 0 -106 61q-15 -33 -38.5 -47t-55.5 -14q-30 0 -56 12.5t-45 43t-30 81.5
t-11 128q0 73 11 122.5t30 78.5t45 41.5t56 12.5t53.5 -13t39.5 -42q36 55 101 55zM153 462q-19 0 -29.5 -10.5t-16 -35t-6.5 -66.5t-1 -105t1 -103.5t6.5 -64t16 -32.5t29.5 -9t29.5 9t16 32.5t7 64t1.5 103.5t-1.5 105t-7 66.5t-16 35t-29.5 10.5zM351 462q-26 0 -43 -36
t-19 -108h123q0 72 -13 108t-48 36z" />
    <glyph glyph-name="Scaron" unicode="&#x160;" horiz-adv-x="294" 
d="M0 0zM256 758v-133h-36q0 16 -4 32.5t-12.5 29.5t-21.5 21.5t-30 8.5q-23 0 -41.5 -22.5t-18.5 -55.5q0 -52 14.5 -92.5t35.5 -74.5t46.5 -65t46.5 -65t35.5 -73.5t14.5 -91.5q0 -51 -12 -87t-32 -58.5t-47.5 -32.5t-57.5 -10q-27 0 -51 12.5t-42.5 36t-30.5 55.5t-15 71
l29 16q4 -26 14 -47.5t23.5 -38t29.5 -25.5t33 -9t31.5 8t25 20.5t16 28t5.5 31.5q0 41 -13 79.5t-34 75.5t-46 73.5l-49 74.5q-23 36 -33 76.5t-10 89.5q0 79 33.5 118.5t88.5 39.5q30 0 48.5 -15.5t30.5 -41.5v40h36zM43 901h39l66 -70l64 70h39l-74 -103h-60z" />
    <glyph glyph-name="scaron" unicode="&#x161;" horiz-adv-x="289" 
d="M4 0zM249 498v-135h-33q0 99 -65 99q-22 0 -36.5 -13.5t-14.5 -44.5q0 -30 13 -48.5t33 -33t42.5 -28.5t42.5 -34.5t33 -51.5t13 -78q0 -34 -11 -60t-30.5 -44t-45 -27.5t-54.5 -9.5q-51 0 -88 32t-44 84l28 10q9 -33 36 -56t59 -23q33 0 49.5 22.5t16.5 51.5
q0 30 -12.5 52.5t-31 41.5t-40 36.5t-40 38.5t-31 47t-12.5 63q0 54 31.5 87t83.5 33q29 0 46.5 -10.5t28.5 -27.5v27h33zM40 635h39l66 -70l64 70h39l-74 -103h-60z" />
    <glyph glyph-name="Ydieresis" unicode="&#x178;" horiz-adv-x="404" 
d="M6 0zM400 718h-13q-12 0 -17 -11l-131 -392v-233q0 -20 7 -27.5t18 -7.5h9v-47h-143v47h11q12 0 18.5 7.5t6.5 27.5v233l-124 371q-7 19 -13 25.5t-19 6.5q-3 0 -4 -1v47h172v-47l-24 1q-14 0 -14 -21q2 -5 1.5 -12t3.5 -20l79 -275l81 294q4 11 4 21q0 13 -18 13h-20v46
h129v-46zM283 911q16 0 26.5 -12.5t10.5 -29.5t-10.5 -29.5t-26.5 -12.5q-37 0 -37 42q0 17 10 29.5t27 12.5zM153 911q17 0 27 -12.5t10 -29.5t-10 -29.5t-27 -12.5q-37 0 -37 42t37 42z" />
    <glyph glyph-name="Zcaron" unicode="&#x17d;" horiz-adv-x="303" 
d="M10 0zM286 0h-276v50l192 667h-118q-24 0 -24 -54v-5h-35v106h261v-42l-197 -675h139q24 0 24 56v5h34v-108zM47 901h39l66 -70l64 70h39l-74 -103h-60z" />
    <glyph glyph-name="zcaron" unicode="&#x17e;" horiz-adv-x="296" 
d="M12 0zM282 0h-270v47l186 359h-122q-23 0 -23 -60h-35v152h254v-47l-187 -359h138q23 0 23 61h36v-153zM44 635h39l66 -70l64 70h39l-74 -103h-60z" />
    <glyph glyph-name="circumflex" unicode="&#x2c6;" horiz-adv-x="226" 
d="M226 550h-39l-66 71l-64 -71h-39l74 103h60z" />
    <glyph glyph-name="caron" unicode="&#x2c7;" horiz-adv-x="226" 
d="M18 635h39l66 -70l64 70h39l-74 -103h-60z" />
    <glyph glyph-name="ring" unicode="&#x2da;" horiz-adv-x="226" 
d="M116 637q33 0 57.5 -19t24.5 -50t-24.5 -50t-57.5 -19q-32 0 -56.5 19t-24.5 50t24.5 50t56.5 19zM116 611q-27 0 -27 -46q0 -45 27 -45t27 45q0 46 -27 46z" />
    <glyph glyph-name="tilde" unicode="&#x2dc;" horiz-adv-x="248" 
d="M248 630q0 -24 -13.5 -43.5t-44.5 -19.5q-23 0 -37.5 8.5t-26.5 19t-24.5 19t-32.5 8.5q-13 0 -18 -13t-6 -30h-24q1 35 15 56t51 21q24 0 38.5 -8.5t26.5 -18t24 -18t30 -8.5q9 0 13.5 9t6.5 33h22v-15z" />
    <glyph glyph-name="endash" unicode="&#x2013;" horiz-adv-x="348" 
d="M330 237h-310v59h310v-59z" />
    <glyph glyph-name="emdash" unicode="&#x2014;" horiz-adv-x="599" 
d="M578 237h-558v59h558v-59z" />
    <glyph glyph-name="quoteleft" unicode="&#x2018;" horiz-adv-x="131" 
d="M10 768q0 32 14 53t40 21q23 0 38 -20.5t15 -52.5q0 -29 -12 -53t-33 -24q-11 0 -21 6q3 -48 45 -66l-4 -21q-18 0 -33 17t-26 41.5t-17 51.5t-6 47z" />
    <glyph glyph-name="quoteright" unicode="&#x2019;" horiz-adv-x="126" 
d="M116 768q0 -21 -6 -48t-17 -51t-26 -41t-32 -17l-5 21q43 18 45 66q-11 -6 -20 -6q-22 0 -34 24t-12 53q0 31 14 52t40 21q24 0 38.5 -21t14.5 -53z" />
    <glyph glyph-name="quotesinglbase" unicode="&#x201a;" horiz-adv-x="126" 
d="M116 76q0 -21 -6.5 -48t-17.5 -51.5t-26 -41.5t-31 -17l-5 22q43 18 45 66q-11 -6 -20 -6q-22 0 -34 23.5t-12 53.5q0 32 15 52.5t39 20.5q23 0 38 -20.5t15 -53.5z" />
    <glyph glyph-name="quotedblleft" unicode="&#x201c;" horiz-adv-x="254" 
d="M7 758q0 33 15 53.5t38 20.5q22 0 38 -19.5t16 -53.5q0 -29 -12 -53t-34 -24q-10 0 -20 6q1 -48 45 -66l-5 -21q-17 0 -32 17t-26 41t-17 51t-6 48zM144 758q0 32 15.5 53t38.5 21q24 0 39 -21t15 -52t-13 -54t-33 -23q-10 0 -20 6q1 -48 44 -66l-4 -21q-18 0 -33 17
t-26 41.5t-17 51.5t-6 47z" />
    <glyph glyph-name="quotedblright" unicode="&#x201d;" horiz-adv-x="256" 
d="M113 768q0 -20 -6.5 -47t-17.5 -51.5t-26 -41.5t-31 -17l-4 21q42 18 45 66q-11 -6 -20 -6q-22 0 -34 24t-12 53q0 31 14.5 52t38.5 21t38.5 -20t14.5 -54zM252 768q0 -20 -6.5 -47t-17.5 -51.5t-26 -41.5t-32 -17l-4 21q43 18 44 66q-11 -6 -20 -6q-20 0 -33 23t-13 54
q0 29 14 51t40 22t40 -22.5t14 -51.5z" />
    <glyph glyph-name="quotedblbase" unicode="&#x201e;" horiz-adv-x="256" 
d="M113 76q0 -21 -6.5 -48t-18 -51.5t-26 -41.5t-30.5 -17l-4 22q42 18 45 66q-11 -6 -20 -6q-22 0 -34 23.5t-12 53.5q0 33 15 53t38 20q22 0 37.5 -19.5t15.5 -54.5zM252 76q0 -21 -6.5 -48t-17.5 -51.5t-26 -41.5t-32 -17l-4 22q43 18 44 66q-11 -6 -20 -6
q-20 0 -33 22.5t-13 54.5q0 31 15 52t39 21t39 -21.5t15 -52.5z" />
    <glyph glyph-name="dagger" unicode="&#x2020;" horiz-adv-x="417" 
d="M400 582q13 -10 13 -28q0 -17 -13 -26h-50l-53 8.5t-55 7.5l-23 -537h-24l-22 537q-56 -3 -107 -15h-48q-14 11 -14 28t14 26h48q26 -6 51.5 -10.5t54.5 -6.5l-5 126v62q14 25 40 25q11 0 22 -6.5t18 -18.5v-62l-5 -126q29 2 57 5.5t51 10.5h50z" />
    <glyph glyph-name="daggerdbl" unicode="&#x2021;" horiz-adv-x="425" 
d="M19 188q-12 10 -12 27t12 25h49q26 -5 53.5 -8.5l57.5 -7.5l10 156l-10 164q-56 -3 -107 -15h-49q-13 10 -13 28q0 17 13 26h49q25 -6 51 -10.5t55 -6.5l-6 126v62q17 25 40 25q12 0 23 -6.5t18 -18.5v-62l-6 -126q29 2 57 5.5t52 10.5h50q12 -11 12 -28t-12 -26h-50
l-53.5 8.5t-55.5 7.5l-10 -164l10 -156q55 4 106 15h48q14 -11 14 -27q0 -17 -14 -25h-48l-51.5 8t-54.5 9l5 -128v-60q-15 -26 -40 -26q-12 0 -22 6t-19 20v61l7 127q-29 -4 -57 -7.5t-53 -8.5h-49z" />
    <glyph glyph-name="bullet" unicode="&#x2022;" horiz-adv-x="579" 
d="M283 503q36 0 68 -12t56 -32.5t38.5 -47.5t14.5 -58q0 -32 -14.5 -60t-38.5 -49t-56 -33.5t-68 -12.5t-67 12.5t-54.5 33.5t-37 49t-13.5 60q0 31 13.5 58t37 47.5t54.5 32.5t67 12z" />
    <glyph glyph-name="ellipsis" unicode="&#x2026;" horiz-adv-x="450" 
d="M74 149q13 0 23 -6.5t16.5 -17t10 -24t3.5 -26.5q0 -29 -15 -52t-38 -23q-24 0 -38.5 23t-14.5 52q0 13 4 26t10.5 23.5t16.5 17.5t22 7zM224 149q12 0 22 -6.5t17 -17t10.5 -24t3.5 -26.5q0 -29 -15 -52t-38 -23q-24 0 -38.5 23t-14.5 52q0 13 3.5 26t10.5 23.5t17 17.5
t22 7zM374 149q12 0 22 -6.5t17 -17t10.5 -24t3.5 -26.5q0 -29 -15 -52t-38 -23q-24 0 -38.5 23t-14.5 52q0 13 3.5 26t10.5 23.5t17 17.5t22 7z" />
    <glyph glyph-name="guilsinglleft" unicode="&#x2039;" horiz-adv-x="257" 
d="M106 338l114 -54v-67l-174 86v66l174 91v-70z" />
    <glyph glyph-name="fraction" unicode="&#x2044;" horiz-adv-x="208" 
d="M301 764l-351 -764h-52l350 764h53z" />
    <glyph glyph-name="Euro" unicode="&#x20ac;" horiz-adv-x="456" 
d="M261 717q-27 0 -46.5 -18.5t-33.5 -52t-21.5 -81.5t-10.5 -106h211l-17 -43h-195v-80h164l-18 -45h-145q1 -56 6.5 -103t18 -80.5t33.5 -52.5t54 -19q39 0 63.5 26t35.5 61h27q-2 -26 -11.5 -50.5t-25.5 -43t-37.5 -29.5t-47.5 -11q-102 0 -147 74.5t-54 227.5h-44l8 45
h34v80h-42l8 43h35q3 66 15.5 121.5t37 96.5t61 64t87.5 23q35 0 60 -7t42 -17t27.5 -21t16.5 -19l-23 -58q-26 32 -55 53.5t-71 21.5z" />
    <glyph glyph-name="trademark" unicode="&#x2122;" horiz-adv-x="832" 
d="M510 473h-129v25q46 0 48 42v222q0 25 -49 25v25h111l97 -244l93 244h109v-25q-42 0 -42 -25v-230q0 -34 46 -34v-25h-150v25q39 0 39 31v205l-97 -261h-20l-105 258v-194q0 -39 49 -39v-25zM23 701l15 115q13 -2 25 -3t21 -1h191q10 0 22.5 1t26.5 3v-114l-23 -2
q-6 79 -75 79q-20 0 -20 -12v-229q0 -40 53 -40v-25h-165v25q54 0 54 40v229q0 15 -21 15q-59 0 -79 -86z" />
    <glyph glyph-name="minus" unicode="&#x2212;" horiz-adv-x="234" 
d="M218 368h-210v48h210v-48z" />
    <glyph glyph-name="ff" unicode="&#xfb00;" horiz-adv-x="425" 
d="M457 690q0 -39 -16.5 -57.5t-39.5 -18.5t-37.5 18t-14.5 45q0 29 10 47.5t36 23.5q-4 16 -15 26.5t-27 10.5q-48 0 -48 -94q0 -19 4 -39l8.5 -43.5t8.5 -50.5t4 -60h95v-47h-96q0 -94 0.5 -160.5t2 -111.5t4.5 -71.5t7.5 -40t11 -17t16.5 -3.5h17v-47h-174v47
q10 0 17.5 3t12.5 16t8 38.5t4.5 70.5t2 112t0.5 164h-144q0 -94 0.5 -160.5t2 -111.5t4 -71.5t7.5 -40t12 -17t17 -3.5h16v-47h-174v47q11 0 18.5 3t12.5 16t8 38.5t4.5 70.5t2 112t0.5 164h-49v47h49q0 29 -4.5 55t-10.5 49.5t-10.5 44.5t-4.5 40q0 75 30.5 105.5
t82.5 30.5q23 0 40.5 -11t29 -29.5t17 -42.5t5.5 -50q0 -39 -16.5 -57.5t-38.5 -18.5q-24 0 -38.5 18t-14.5 45q0 29 10 47.5t36 23.5q-4 16 -10.5 26.5t-22.5 10.5q-48 0 -48 -94q0 -19 6 -39l13 -43.5t13 -50.5t6 -60h143q0 60 -8 105.5t-8 83.5q0 75 30.5 105.5
t82.5 30.5q23 0 42 -11t32 -29.5t20 -42.5t7 -50z" />
    <glyph glyph-name="fi" unicode="&#xfb01;" horiz-adv-x="379" 
d="M315 690q0 -39 -16.5 -57.5t-39.5 -18.5t-37.5 18t-14.5 45q0 29 10 47.5t36 23.5q-4 16 -24 26.5t-36 10.5q-12 0 -25.5 -6t-25 -20t-19 -36t-7.5 -54v-171h207q-2 -19 -3 -54.5t-1 -83.5v-182q0 -46 1 -72.5t4.5 -39.5t10 -16t18.5 -3h7v-47h-160v47h12q12 0 18.5 2.5
t9.5 15.5t3.5 39t0.5 74v131q0 46 -1.5 74t-5.5 43t-11 20t-19 5h-92q0 -94 0.5 -160.5t2 -111.5t4 -71.5t7.5 -40t12 -17t17 -3.5h16v-47h-174v47q11 0 18.5 3t12.5 16t8 38.5t4.5 70.5t2 112t0.5 164h-49v47h49v161q0 47 11 78.5t30.5 50.5t47 27t61.5 8q29 0 51.5 -11
t37.5 -29.5t22.5 -42.5t7.5 -50z" />
    <glyph glyph-name="fl" unicode="&#xfb02;" horiz-adv-x="403" 
d="M221 690q0 -39 -16.5 -57.5t-38.5 -18.5q-24 0 -38.5 18t-14.5 45q0 29 10 47.5t36 23.5q-4 16 -10.5 26.5t-22.5 10.5q-48 0 -48 -94q0 -19 6 -39l13 -43.5t13 -50.5t6 -60h84v-47h-85q0 -94 0.5 -160.5t2 -111.5t4 -71.5t7.5 -40t12 -17t17 -3.5h16v-47h-174v47
q11 0 18.5 3t12.5 16t8 38.5t4.5 70.5t2 112t0.5 164h-49v47h49q0 29 -4.5 55t-10.5 49.5t-10.5 44.5t-4.5 40q0 75 30.5 105.5t82.5 30.5q23 0 40.5 -11t29 -29.5t17 -42.5t5.5 -50zM352 812q-2 -118 -3 -231t-1 -228q0 -60 1.5 -127t2.5 -148q3 -19 8.5 -25t27.5 -6v-47
h-160v47q36 0 38 32q2 79 3.5 155t1.5 154q0 67 -1.5 155t-3.5 191q-2 20 -7.5 26t-22.5 6q-7 0 -8 -1v47h124z" />
    <glyph glyph-name="ffi" unicode="&#xfb03;" horiz-adv-x="639" 
d="M221 690q0 -39 -16.5 -57.5t-38.5 -18.5q-24 0 -38.5 18t-14.5 45q0 29 10 47.5t36 23.5q-4 16 -10.5 26.5t-22.5 10.5q-48 0 -48 -94q0 -19 6 -39l13 -43.5t13 -50.5t6 -60h124v161q0 47 11 78.5t31 50.5t47.5 27t60.5 8q29 0 51.5 -11t37.5 -29.5t23 -42.5t8 -50
q0 -39 -17 -57.5t-39 -18.5q-23 0 -38 18t-15 45q0 29 10.5 47.5t35.5 23.5q-2 8 -8 14.5t-15 11.5t-18.5 8t-17.5 3q-12 0 -25.5 -6t-25 -20t-19 -36t-7.5 -54v-171h207q-2 -19 -3.5 -54.5t-1.5 -83.5v-182q0 -46 1 -72.5t5 -39.5t10.5 -16t18.5 -3h7v-47h-160v47h12
q11 0 17.5 2.5t9.5 15.5t3.5 39t0.5 74v131q0 46 -1.5 74t-5 43t-11 20t-19.5 5h-91q0 -94 0.5 -160.5t2 -111.5t4.5 -71.5t7.5 -40t11 -17t16.5 -3.5h17v-47h-174v47q10 0 17.5 3t12.5 16t8 38.5t4.5 70.5t2 112t0.5 164h-125q0 -94 0.5 -160.5t2 -111.5t4 -71.5t7.5 -40
t12 -17t17 -3.5h16v-47h-174v47q11 0 18.5 3t12.5 16t8 38.5t4.5 70.5t2 112t0.5 164h-49v47h49q0 29 -4.5 55t-10.5 49.5t-10.5 44.5t-4.5 40q0 75 30.5 105.5t82.5 30.5q23 0 40.5 -11t29 -29.5t17 -42.5t5.5 -50z" />
    <glyph glyph-name="ffl" unicode="&#xfb04;" horiz-adv-x="626" 
d="M221 690q0 -39 -16.5 -57.5t-38.5 -18.5q-24 0 -38.5 18t-14.5 45q0 29 10 47.5t36 23.5q-4 16 -10.5 26.5t-22.5 10.5q-48 0 -48 -94q0 -19 6 -39l13 -43.5t13 -50.5t6 -60h160q0 29 -4.5 55t-10.5 49.5t-10.5 44.5t-4.5 40q0 75 31 105.5t82 30.5q23 0 40.5 -11
t29 -29.5t17.5 -42.5t6 -50q0 -39 -17 -57.5t-39 -18.5q-24 0 -38.5 18t-14.5 45q0 29 10 47.5t36 23.5q-3 16 -10 26.5t-22 10.5q-48 0 -48 -94q0 -19 6 -39l13 -43.5t13 -50.5t6 -60h84v-47h-85q0 -94 0.5 -160.5t2 -111.5t4.5 -71.5t7.5 -40t11 -17t16.5 -3.5h17v-47
h-175v47q11 0 18.5 3t12.5 16t8 38.5t4.5 70.5t2 112t0.5 164h-161q0 -94 0.5 -160.5t2 -111.5t4 -71.5t7.5 -40t12 -17t17 -3.5h16v-47h-174v47q11 0 18.5 3t12.5 16t8 38.5t4.5 70.5t2 112t0.5 164h-49v47h49q0 29 -4.5 55t-10.5 49.5t-10.5 44.5t-4.5 40q0 75 30.5 105.5
t82.5 30.5q23 0 40.5 -11t29 -29.5t17 -42.5t5.5 -50zM575 812q-2 -118 -3.5 -231t-1.5 -228q0 -60 2 -127t3 -148q2 -19 7.5 -25t28.5 -6v-47h-160v47q35 0 38 32q2 79 3 155t1 154q0 67 -1 155t-3 191q-3 20 -8.5 26t-21.5 6q-7 0 -8 -1v47h124z" />
    <glyph glyph-name="nonmarkingreturn" horiz-adv-x="205" 
 />
    <glyph glyph-name=".null" horiz-adv-x="0" 
 />
    <glyph glyph-name=".ttfautohint" horiz-adv-x="0" 
d="M0 0z" />
    </font>
</defs>
</svg>
